<?xml version="1.0" encoding="utf-8"?>
<!-- Generator: Adobe Illustrator 18.0.0, SVG Export Plug-In . SVG Version: 6.00 Build 0)  -->
<!DOCTYPE svg PUBLIC "-//W3C//DTD SVG 1.1 Tiny//EN" "http://www.w3.org/Graphics/SVG/1.1/DTD/svg11-tiny.dtd">
<svg version="1.1" baseProfile="tiny" id="Capa_1" xmlns="http://www.w3.org/2000/svg" xmlns:xlink="http://www.w3.org/1999/xlink"
	 x="0px" y="0px" viewBox="0 0 220 100" xml:space="preserve">
<path fill="none" stroke="#F7931E" stroke-width="2" stroke-miterlimit="10" d="M206.8,99H13.3C6.5,99,1,93.5,1,86.8V13.3
	C1,6.5,6.5,1,13.3,1h193.5c6.8,0,12.3,5.5,12.3,12.3v73.5C219,93.5,213.5,99,206.8,99z"/>
<g>
	<path fill="#F29161" d="M9.1,37.8c0-4.3,3.3-7.2,7.5-7.2c3.1,0,4.9,1.7,5.9,3.4l-2.6,1.3c-0.6-1.1-1.8-2-3.3-2
		c-2.5,0-4.4,2-4.4,4.6s1.8,4.6,4.4,4.6c1.4,0,2.7-0.9,3.3-2l2.6,1.2c-1,1.7-2.8,3.4-5.9,3.4C12.3,45,9.1,42.1,9.1,37.8z"/>
	<path fill="#F29161" d="M23.5,39.7c0-2.9,2-5.3,5.4-5.3c3.4,0,5.4,2.4,5.4,5.3c0,2.9-2,5.3-5.4,5.3C25.5,45,23.5,42.6,23.5,39.7z
		 M31.4,39.7c0-1.6-0.9-2.9-2.6-2.9s-2.6,1.4-2.6,2.9c0,1.6,0.9,3,2.6,3S31.4,41.3,31.4,39.7z"/>
	<path fill="#F29161" d="M43,44.8v-6.1c0-1.4-0.7-1.9-1.9-1.9c-1,0-1.9,0.6-2.3,1.2v6.8h-2.7V34.6h2.7V36c0.7-0.8,1.9-1.6,3.5-1.6
		c2.2,0,3.3,1.3,3.3,3.2v7.2H43z"/>
	<path fill="#F29161" d="M48.8,42.3V37h-1.7v-2.3h1.7v-2.8h2.7v2.8h2.1V37h-2.1v4.6c0,0.6,0.3,1.1,0.9,1.1c0.4,0,0.8-0.1,0.9-0.3
		l0.6,2c-0.4,0.4-1.1,0.7-2.2,0.7C49.8,45,48.8,44.1,48.8,42.3z"/>
	<path fill="#F29161" d="M54.8,39.7c0-2.9,2.2-5.3,5.2-5.3c3,0,5.1,2.3,5.1,5.6v0.6h-7.5c0.2,1.3,1.2,2.4,2.9,2.4
		c0.9,0,2.1-0.4,2.7-1l1.2,1.7c-1,0.9-2.6,1.4-4.2,1.4C57.1,45,54.8,42.9,54.8,39.7z M60,36.5c-1.7,0-2.4,1.2-2.5,2.2h5
		C62.4,37.8,61.8,36.5,60,36.5z"/>
	<path fill="#F29161" d="M73.9,44.8v-6.1c0-1.4-0.7-1.9-1.9-1.9c-1,0-1.9,0.6-2.3,1.2v6.8H67V34.6h2.7V36c0.7-0.8,1.9-1.6,3.5-1.6
		c2.2,0,3.3,1.3,3.3,3.2v7.2H73.9z"/>
	<path fill="#F29161" d="M78.9,31.9c0-0.9,0.7-1.6,1.6-1.6c0.9,0,1.6,0.7,1.6,1.6s-0.7,1.6-1.6,1.6C79.6,33.5,78.9,32.8,78.9,31.9z
		 M79.2,44.8V34.6h2.7v10.1H79.2z"/>
	<path fill="#F29161" d="M91.5,44.8v-1.3c-0.8,1-1.9,1.6-3.1,1.6c-2.6,0-4.5-1.9-4.5-5.3c0-3.3,1.9-5.3,4.5-5.3
		c1.2,0,2.3,0.5,3.1,1.6v-5.2h2.7v14H91.5z M91.5,41.5v-3.6c-0.4-0.7-1.4-1.2-2.3-1.2c-1.5,0-2.6,1.2-2.6,3c0,1.7,1,2.9,2.6,2.9
		C90.1,42.6,91,42.2,91.5,41.5z"/>
	<path fill="#F29161" d="M96.2,39.7c0-2.9,2-5.3,5.4-5.3c3.4,0,5.4,2.4,5.4,5.3c0,2.9-2,5.3-5.4,5.3C98.2,45,96.2,42.6,96.2,39.7z
		 M104.1,39.7c0-1.6-0.9-2.9-2.6-2.9s-2.6,1.4-2.6,2.9c0,1.6,0.9,3,2.6,3S104.1,41.3,104.1,39.7z"/>
	<path fill="#F29161" d="M121.2,44.8v-1.3c-0.8,1-1.9,1.6-3.1,1.6c-2.6,0-4.5-1.9-4.5-5.3c0-3.3,1.9-5.3,4.5-5.3
		c1.2,0,2.3,0.5,3.1,1.6v-5.2h2.7v14H121.2z M121.2,41.5v-3.6c-0.4-0.7-1.4-1.2-2.3-1.2c-1.5,0-2.6,1.2-2.6,3c0,1.7,1.1,2.9,2.6,2.9
		C119.8,42.6,120.8,42.2,121.2,41.5z"/>
	<path fill="#F29161" d="M125.9,39.7c0-2.9,2.2-5.3,5.2-5.3c3,0,5.1,2.3,5.1,5.6v0.6h-7.5c0.2,1.3,1.2,2.4,2.9,2.4
		c0.9,0,2.1-0.4,2.7-1l1.2,1.7c-1,0.9-2.6,1.4-4.2,1.4C128.2,45,125.9,42.9,125.9,39.7z M131.1,36.5c-1.7,0-2.4,1.2-2.5,2.2h5
		C133.6,37.8,132.9,36.5,131.1,36.5z"/>
	<path fill="#F29161" d="M137.3,43.4l1.2-1.9c0.7,0.7,2.2,1.4,3.5,1.4c1.2,0,1.7-0.5,1.7-1.1c0-1.7-6-0.3-6-4.3
		c0-1.7,1.5-3.2,4.2-3.2c1.7,0,3.1,0.6,4.1,1.4l-1.1,1.8c-0.6-0.7-1.8-1.2-3-1.2c-1,0-1.6,0.4-1.6,1c0,1.5,6,0.3,6,4.3
		c0,1.8-1.6,3.3-4.4,3.3C140,45,138.3,44.4,137.3,43.4z"/>
	<path fill="#F29161" d="M148.7,42.3V37H147v-2.3h1.7v-2.8h2.7v2.8h2.1V37h-2.1v4.6c0,0.6,0.3,1.1,0.9,1.1c0.4,0,0.8-0.1,0.9-0.3
		l0.6,2c-0.4,0.4-1.1,0.7-2.2,0.7C149.7,45,148.7,44.1,148.7,42.3z"/>
	<path fill="#F29161" d="M161.4,44.8v-1c-0.7,0.8-1.9,1.3-3.2,1.3c-1.6,0-3.5-1.1-3.5-3.4c0-2.4,1.9-3.3,3.5-3.3
		c1.3,0,2.5,0.4,3.2,1.2v-1.4c0-1-0.9-1.7-2.2-1.7c-1.1,0-2.1,0.4-3,1.2l-1-1.8c1.2-1.1,2.8-1.6,4.4-1.6c2.3,0,4.4,0.9,4.4,3.8v6.6
		H161.4z M161.4,42.3v-1.3c-0.4-0.6-1.3-0.9-2.1-0.9c-1,0-1.9,0.5-1.9,1.5c0,0.9,0.9,1.5,1.9,1.5C160.1,43.2,160.9,42.9,161.4,42.3z
		"/>
	<path fill="#F29161" d="M166,39.7c0-3.1,2.2-5.3,5.4-5.3c2.1,0,3.3,0.9,4,1.8l-1.7,1.6c-0.5-0.7-1.2-1.1-2.1-1.1
		c-1.6,0-2.8,1.2-2.8,2.9s1.1,3,2.8,3c0.9,0,1.7-0.4,2.1-1.1l1.7,1.6c-0.7,0.9-1.9,1.8-4,1.8C168.3,45,166,42.8,166,39.7z"/>
	<path fill="#F29161" d="M183.2,44.8v-1c-0.7,0.8-1.9,1.3-3.2,1.3c-1.6,0-3.5-1.1-3.5-3.4c0-2.4,1.9-3.3,3.5-3.3
		c1.3,0,2.5,0.4,3.2,1.2v-1.4c0-1-0.9-1.7-2.2-1.7c-1.1,0-2.1,0.4-3,1.2l-1-1.8c1.2-1.1,2.8-1.6,4.4-1.6c2.3,0,4.4,0.9,4.4,3.8v6.6
		H183.2z M183.2,42.3v-1.3c-0.4-0.6-1.3-0.9-2.1-0.9c-1,0-1.9,0.5-1.9,1.5c0,0.9,0.9,1.5,1.9,1.5C182,43.2,182.8,42.9,183.2,42.3z"
		/>
	<path fill="#F29161" d="M195.5,44.8v-1.3c-0.8,1-1.9,1.6-3.1,1.6c-2.6,0-4.5-1.9-4.5-5.3c0-3.3,1.9-5.3,4.5-5.3
		c1.2,0,2.3,0.5,3.1,1.6v-5.2h2.7v14H195.5z M195.5,41.5v-3.6c-0.4-0.7-1.4-1.2-2.3-1.2c-1.5,0-2.6,1.2-2.6,3c0,1.7,1.1,2.9,2.6,2.9
		C194.1,42.6,195.1,42.2,195.5,41.5z"/>
	<path fill="#F29161" d="M200.2,39.7c0-2.9,2-5.3,5.4-5.3c3.4,0,5.4,2.4,5.4,5.3c0,2.9-2,5.3-5.4,5.3
		C202.2,45,200.2,42.6,200.2,39.7z M208.2,39.7c0-1.6-0.9-2.9-2.6-2.9c-1.7,0-2.6,1.4-2.6,2.9c0,1.6,0.9,3,2.6,3
		C207.2,42.6,208.2,41.3,208.2,39.7z"/>
	<path fill="#F29161" d="M41.9,64.5v5.2h-2.7v-14h2.7v1.3c0.8-1,1.9-1.5,3.1-1.5c2.6,0,4.5,1.9,4.5,5.3c0,3.4-1.9,5.3-4.5,5.3
		C43.8,66,42.7,65.5,41.9,64.5z M46.7,60.7c0-1.7-1-2.9-2.6-2.9c-0.9,0-1.8,0.5-2.3,1.2v3.6c0.4,0.6,1.4,1.2,2.3,1.2
		C45.7,63.6,46.7,62.5,46.7,60.7z"/>
	<path fill="#F29161" d="M57.6,65.8v-1c-0.7,0.8-1.9,1.3-3.2,1.3c-1.6,0-3.5-1.1-3.5-3.4c0-2.4,1.9-3.3,3.5-3.3
		c1.3,0,2.5,0.4,3.2,1.2v-1.4c0-1-0.9-1.7-2.2-1.7c-1.1,0-2.1,0.4-3,1.2l-1-1.8c1.2-1.1,2.8-1.6,4.4-1.6c2.3,0,4.4,0.9,4.4,3.8v6.6
		H57.6z M57.6,63.3v-1.3c-0.4-0.6-1.3-0.9-2.1-0.9c-1,0-1.9,0.5-1.9,1.5c0,0.9,0.9,1.5,1.9,1.5C56.3,64.2,57.1,63.9,57.6,63.3z"/>
	<path fill="#F29161" d="M62.9,65.8V55.6h2.7V57c0.7-0.9,2-1.6,3.2-1.6V58c-0.2,0-0.4-0.1-0.7-0.1c-0.9,0-2.1,0.5-2.5,1.2v6.7H62.9z
		"/>
	<path fill="#F29161" d="M76.5,65.8v-1c-0.7,0.8-1.9,1.3-3.2,1.3c-1.6,0-3.5-1.1-3.5-3.4c0-2.4,1.9-3.3,3.5-3.3
		c1.3,0,2.5,0.4,3.2,1.2v-1.4c0-1-0.9-1.7-2.2-1.7c-1.1,0-2.1,0.4-3,1.2l-1-1.8c1.2-1.1,2.8-1.6,4.4-1.6c2.3,0,4.4,0.9,4.4,3.8v6.6
		H76.5z M76.5,63.3v-1.3c-0.4-0.6-1.3-0.9-2.1-0.9c-1,0-1.9,0.5-1.9,1.5c0,0.9,0.9,1.5,1.9,1.5C75.2,64.2,76.1,63.9,76.5,63.3z"/>
	<path fill="#F29161" d="M87.2,65.8v-14h2.7v14H87.2z"/>
	<path fill="#F29161" d="M98.6,65.8v-1c-0.7,0.8-1.9,1.3-3.2,1.3c-1.6,0-3.5-1.1-3.5-3.4c0-2.4,1.9-3.3,3.5-3.3
		c1.3,0,2.5,0.4,3.2,1.2v-1.4c0-1-0.9-1.7-2.2-1.7c-1.1,0-2.1,0.4-3,1.2l-1-1.8c1.2-1.1,2.8-1.6,4.4-1.6c2.3,0,4.4,0.9,4.4,3.8v6.6
		H98.6z M98.6,63.3v-1.3c-0.4-0.6-1.3-0.9-2.1-0.9c-1,0-1.9,0.5-1.9,1.5c0,0.9,0.9,1.5,1.9,1.5C97.3,64.2,98.2,63.9,98.6,63.3z"/>
	<path fill="#F29161" d="M112,64.5v5.2h-2.7v-14h2.7v1.3c0.8-1,1.9-1.5,3.1-1.5c2.6,0,4.5,1.9,4.5,5.3c0,3.4-1.9,5.3-4.5,5.3
		C113.9,66,112.8,65.5,112,64.5z M116.8,60.7c0-1.7-1-2.9-2.6-2.9c-0.9,0-1.8,0.5-2.3,1.2v3.6c0.4,0.6,1.4,1.2,2.3,1.2
		C115.8,63.6,116.8,62.5,116.8,60.7z"/>
	<path fill="#F29161" d="M120.9,60.7c0-2.9,2-5.3,5.4-5.3c3.4,0,5.4,2.4,5.4,5.3c0,2.9-2,5.3-5.4,5.3
		C122.9,66,120.9,63.6,120.9,60.7z M128.8,60.7c0-1.6-0.9-2.9-2.6-2.9s-2.6,1.4-2.6,2.9c0,1.6,0.9,3,2.6,3S128.8,62.3,128.8,60.7z"
		/>
	<path fill="#F29161" d="M133.6,65.8V55.6h2.7V57c0.7-0.9,2-1.6,3.2-1.6V58c-0.2,0-0.4-0.1-0.7-0.1c-0.9,0-2.1,0.5-2.5,1.2v6.7
		H133.6z"/>
	<path fill="#F29161" d="M141.7,63.3V58H140v-2.3h1.7v-2.8h2.7v2.8h2.1V58h-2.1v4.6c0,0.6,0.3,1.1,0.9,1.1c0.4,0,0.8-0.1,0.9-0.3
		l0.6,2c-0.4,0.4-1.1,0.7-2.2,0.7C142.7,66,141.7,65.1,141.7,63.3z"/>
	<path fill="#F29161" d="M154.3,65.8v-1c-0.7,0.8-1.9,1.3-3.2,1.3c-1.6,0-3.5-1.1-3.5-3.4c0-2.4,1.9-3.3,3.5-3.3
		c1.3,0,2.5,0.4,3.2,1.2v-1.4c0-1-0.9-1.7-2.2-1.7c-1.1,0-2.1,0.4-3,1.2l-1-1.8c1.2-1.1,2.8-1.6,4.4-1.6c2.3,0,4.4,0.9,4.4,3.8v6.6
		H154.3z M154.3,63.3v-1.3c-0.4-0.6-1.3-0.9-2.1-0.9c-1,0-1.9,0.5-1.9,1.5c0,0.9,0.9,1.5,1.9,1.5C153.1,64.2,153.9,63.9,154.3,63.3z
		"/>
	<path fill="#F29161" d="M166.6,65.8v-1.3c-0.8,1-1.9,1.6-3.1,1.6c-2.6,0-4.5-1.9-4.5-5.3c0-3.3,1.9-5.3,4.5-5.3
		c1.2,0,2.3,0.5,3.1,1.6v-5.2h2.7v14H166.6z M166.6,62.5v-3.6c-0.4-0.7-1.4-1.2-2.3-1.2c-1.5,0-2.6,1.2-2.6,3c0,1.7,1,2.9,2.6,2.9
		C165.2,63.6,166.2,63.2,166.6,62.5z"/>
	<path fill="#F29161" d="M178,65.8v-1c-0.7,0.8-1.9,1.3-3.2,1.3c-1.6,0-3.5-1.1-3.5-3.4c0-2.4,1.9-3.3,3.5-3.3
		c1.3,0,2.5,0.4,3.2,1.2v-1.4c0-1-0.9-1.7-2.2-1.7c-1.1,0-2.1,0.4-3,1.2l-1-1.8c1.2-1.1,2.8-1.6,4.4-1.6c2.3,0,4.4,0.9,4.4,3.8v6.6
		H178z M178,63.3v-1.3c-0.4-0.6-1.3-0.9-2.1-0.9c-1,0-1.9,0.5-1.9,1.5c0,0.9,0.9,1.5,1.9,1.5C176.8,64.2,177.6,63.9,178,63.3z"/>
</g>
</svg>
