<?xml version="1.0" encoding="utf-8"?>
<!-- Generator: Adobe Illustrator 18.0.0, SVG Export Plug-In . SVG Version: 6.00 Build 0)  -->
<!DOCTYPE svg PUBLIC "-//W3C//DTD SVG 1.1//EN" "http://www.w3.org/Graphics/SVG/1.1/DTD/svg11.dtd">
<svg version="1.1" id="Capa_1" xmlns="http://www.w3.org/2000/svg" xmlns:xlink="http://www.w3.org/1999/xlink" x="0px" y="0px"
	 viewBox="0 0 150 150" enable-background="new 0 0 150 150" xml:space="preserve">
<g>
	<path fill="#FFFFFF" d="M24.1,110.9c0,1.5-1.1,2.7-2.5,3l3.1,8.4c0.2,0.4-0.1,0.8-0.6,0.8h-2.3c-0.5,0-0.8-0.3-0.9-0.8l-2.9-8.3
		h-1.3v8.3c0,0.5-0.3,0.8-0.8,0.8h-2.3c-0.5,0-0.8-0.3-0.8-0.8V99.3h8.4c1.7,0,3,1.3,3,3V110.9z M20.3,103.2c0-0.5-0.3-0.8-0.8-0.8
		h-2.9v8.4h2.9c0.5,0,0.8-0.3,0.8-0.8V103.2z"/>
	<path fill="#FFFFFF" d="M30.5,112v7.8H35c0.5,0,0.8,0.3,0.8,0.8v1.5c0,0.5-0.3,0.8-0.8,0.8h-8.4V99.3h8.2c0.5,0,0.8,0.3,0.8,0.8
		v1.5c0,0.5-0.3,0.8-0.8,0.8h-4.3v6.5h3.6c0.5,0,0.8,0.3,0.8,0.8v1.5c0,0.5-0.3,0.8-0.8,0.8H30.5z"/>
	<path fill="#FFFFFF" d="M46.7,119.9c-0.2,1.7-1.3,3-3,3H42c-1.7,0-2.8-1.3-3-3l-2.4-19.9c0-0.5,0.2-0.8,0.7-0.8h2.4
		c0.5,0,0.7,0.3,0.8,0.8l2.2,19.8h0.4l2.2-19.8c0-0.5,0.3-0.8,0.8-0.8h2.3c0.5,0,0.8,0.3,0.7,0.8L46.7,119.9z"/>
	<g>
		<path fill="#FFFFFF" d="M62.2,105c0,0-0.1-0.1-0.1-0.1l0,0c-0.1-0.1-0.1-0.2-0.2-0.4c0-0.1-0.1-0.1-0.1-0.2l0-0.1
			c-0.1-0.1-0.1-0.2-0.2-0.4c0-0.1-0.1-0.1-0.1-0.2l0,0c0-0.1-0.1-0.3-0.1-0.4c0-0.1-0.1-0.2-0.1-0.3c0-0.1-0.1-0.3-0.1-0.4
			c0-0.1-0.1-0.2-0.1-0.3c0-0.1-0.1-0.3-0.1-0.4l0,0c0-0.1,0-0.2-0.1-0.3c0-0.2,0-0.3-0.1-0.5l0-0.1c0-0.1,0-0.2,0-0.2
			c0-0.2,0-0.4,0-0.5l0-0.1c0-0.1,0-0.1,0-0.2c0-0.1,0-0.2,0-0.3c-0.4-0.2-0.9-0.3-1.4-0.3h-5.7c-1.7,0-3,1.3-3,3v17.6
			c0,1.7,1.3,3,3,3h5.7c1.7,0,3-1.3,3-3v-14.7C62.3,105.2,62.2,105.1,62.2,105z M58.5,119.1c0,0.5-0.3,0.8-0.8,0.8h-2.5
			c-0.5,0-0.8-0.3-0.8-0.8v-15.9c0-0.4,0.2-0.8,0.8-0.8h2.5c0.5,0,0.8,0.3,0.8,0.8V119.1z"/>
	</g>
	<path fill="#FFFFFF" d="M64.9,100.1c0-0.5,0.3-0.8,0.8-0.8H68c0.5,0,0.8,0.3,0.8,0.8v19.8h4.6c0.5,0,0.8,0.3,0.8,0.8v1.5
		c0,0.5-0.3,0.8-0.8,0.8h-8.4V100.1z"/>
	<g>
		<path fill="#FFFFFF" d="M86.1,99.3h-2.3c-0.5,0-0.8,0.3-0.8,0.8v19c0,0.5-0.3,0.8-0.8,0.8h-2.2c-0.5,0-0.8-0.3-0.8-0.8v-19
			c0-0.5-0.3-0.8-0.8-0.8h-2.3c-0.5,0-0.8,0.3-0.8,0.8v5c0,0.1,0.1,0.1,0.1,0.2l0,0c0,0,0,0.1,0.1,0.1c0.1,0.1,0.1,0.2,0.2,0.3
			l0,0.1c0,0,0,0,0,0.1c0.1,0.1,0.2,0.3,0.3,0.4l0,0c0,0,0,0,0,0c0.1,0.1,0.1,0.2,0.2,0.3c0,0,0,0,0.1,0.1l0,0
			c0.1,0.1,0.1,0.1,0.2,0.2c0,0,0.1,0.1,0.1,0.1l0,0.1l0,0c0.3,0.4,0.4,0.9,0.2,1.3h0c0,0,0,0,0,0c0,0,0,0,0,0
			c-0.3,0.7-1,1.1-1.6,1.3v10.2c0,1.7,1.3,3,3,3h5.3c1.7,0,3-1.3,3-3v-19.9C86.8,99.6,86.6,99.3,86.1,99.3z"/>
	</g>
	<path fill="#FFFFFF" d="M94,102.4c-0.5,0-0.8,0.3-0.8,0.8v15.9c0,0.5,0.3,0.8,0.8,0.8h2.5c0.5,0,0.8-0.3,0.8-0.8v-2.5
		c0-0.5,0.3-0.8,0.8-0.8h2.3c0.5,0,0.8,0.3,0.8,0.8v3.4c0,1.7-1.3,3-3,3h-5.7c-1.7,0-3-1.3-3-3v-17.6c0-1.7,1.3-3,3-3h5.5
		c1.7,0,3,1.3,3,3v3.4c0,0.5-0.3,0.8-0.8,0.8h-2.3c-0.5,0-0.8-0.3-0.8-0.8v-2.5c0-0.4-0.2-0.8-0.8-0.8H94z"/>
	<path fill="#FFFFFF" d="M106.3,99.3c0.5,0,0.8,0.3,0.8,0.8v22.1c0,0.5-0.3,0.8-0.8,0.8H104c-0.5,0-0.8-0.3-0.8-0.8v-22.1
		c0-0.5,0.3-0.8,0.8-0.8H106.3z"/>
	<path fill="#FFFFFF" d="M109.7,102.3c0-1.7,1.3-3,3-3h5.7c1.7,0,3,1.3,3,3v17.6c0,1.7-1.3,3-3,3h-5.7c-1.7,0-3-1.3-3-3V102.3z
		 M114.3,102.4c-0.5,0-0.8,0.3-0.8,0.8v15.9c0,0.5,0.3,0.8,0.8,0.8h2.5c0.5,0,0.8-0.3,0.8-0.8v-15.9c0-0.5-0.3-0.8-0.8-0.8H114.3z"
		/>
	<path fill="#FFFFFF" d="M129.6,99.3c0.5,0,0.7,0.3,0.8,0.8l2,15.2l0.4,4.3l0.2,0l-0.3-19.5c0-0.5,0.3-0.8,0.8-0.8h1.9
		c0.5,0,0.8,0.3,0.8,0.8l-0.1,22.1c0,0.5-0.3,0.8-0.8,0.8h-4.9c-0.5,0-0.7-0.3-0.8-0.8l-2-15.7l-0.3-4.1h-0.2l0.2,19.8
		c0,0.5-0.3,0.8-0.8,0.8h-1.9c-0.5,0-0.8-0.3-0.8-0.8v-22.1c0-0.5,0.3-0.8,0.8-0.8H129.6z"/>
	<path fill="#FFFFFF" d="M13.6,132.5c0.4,1.2,0.6,2.6,0.6,3.9v9.5c0,1.7-1.3,3-3,3H2.8v-23.6h5.9c1.9,0,2.8,1,3.3,2.6L13.6,132.5z
		 M8.5,129.1c-0.1-0.4-0.4-0.6-0.8-0.6H6.6v17.4h2.9c0.5,0,0.8-0.3,0.8-0.8v-9.6c0-0.4,0-0.8-0.2-1.2L8.5,129.1z"/>
	<path fill="#FFFFFF" d="M20.6,138.1v7.8h4.5c0.5,0,0.8,0.3,0.8,0.8v1.5c0,0.5-0.3,0.8-0.8,0.8h-8.4v-23.6h8.2
		c0.5,0,0.8,0.3,0.8,0.8v1.5c0,0.5-0.3,0.8-0.8,0.8h-4.3v6.5h3.6c0.5,0,0.8,0.3,0.8,0.8v1.5c0,0.5-0.3,0.8-0.8,0.8H20.6z"/>
	<path fill="#FFFFFF" d="M31.7,132.5l-0.5-4.1H31l0.2,19.8c0,0.5-0.3,0.8-0.8,0.8h-2c-0.5,0-0.8-0.3-0.8-0.8v-22.1
		c0-0.5,0.3-0.8,0.8-0.8h5c0.5,0,0.7,0.3,0.8,0.8l2.3,15.2l0.4,4.3h0.2l0.4-4.3l2.3-15.2c0.1-0.5,0.3-0.8,0.8-0.8h4.9
		c0.5,0,0.8,0.3,0.8,0.8v22.1c0,0.5-0.3,0.8-0.8,0.8h-2c-0.5,0-0.8-0.3-0.8-0.8l0.2-19.8h-0.2l-0.5,4.1l-2.2,15.7
		c-0.1,0.5-0.3,0.8-0.8,0.8h-4.6c-0.5,0-0.7-0.3-0.8-0.8L31.7,132.5z"/>
	<path fill="#FFFFFF" d="M48.9,128.4c0-1.7,1.3-3,3-3h5.7c1.7,0,3,1.3,3,3V146c0,1.7-1.3,3-3,3H52c-1.7,0-3-1.3-3-3V128.4z
		 M53.5,128.5c-0.5,0-0.8,0.3-0.8,0.8v15.9c0,0.5,0.3,0.8,0.8,0.8H56c0.5,0,0.8-0.3,0.8-0.8v-15.9c0-0.5-0.3-0.8-0.8-0.8H53.5z"/>
	<path fill="#FFFFFF" d="M67.8,128.5c-0.5,0-0.8,0.3-0.8,0.8v15.9c0,0.5,0.3,0.8,0.8,0.8h2.5c0.5,0,0.8-0.3,0.8-0.8v-2.5
		c0-0.5,0.3-0.8,0.8-0.8h2.3c0.5,0,0.8,0.3,0.8,0.8v3.4c0,1.7-1.3,3-3,3h-5.7c-1.7,0-3-1.3-3-3v-17.6c0-1.7,1.3-3,3-3h5.5
		c1.7,0,3,1.3,3,3v3.4c0,0.5-0.3,0.8-0.8,0.8h-2.3c-0.5,0-0.8-0.3-0.8-0.8v-2.5c0-0.4-0.2-0.8-0.8-0.8H67.8z"/>
	<path fill="#FFFFFF" d="M88.4,136.9c0,1.5-1.1,2.7-2.5,3l3.1,8.4c0.2,0.4-0.1,0.8-0.6,0.8h-2.3c-0.5,0-0.8-0.3-0.9-0.8l-2.9-8.3
		h-1.3v8.3c0,0.5-0.3,0.8-0.8,0.8h-2.3c-0.5,0-0.8-0.3-0.8-0.8v-22.9h8.4c1.7,0,3,1.3,3,3V136.9z M84.6,129.2c0-0.5-0.3-0.8-0.8-0.8
		h-2.9v8.4h2.9c0.5,0,0.8-0.3,0.8-0.8V129.2z"/>
	<path fill="#FFFFFF" d="M102.9,148.2c0,0.5-0.2,0.8-0.7,0.8h-2.3c-0.5,0-0.8-0.3-0.8-0.8l-0.6-5.1h-4.1l-0.6,5.1
		c0,0.5-0.3,0.8-0.8,0.8h-2.4c-0.5,0-0.8-0.3-0.7-0.8l2.5-19.9c0.2-1.7,1.3-3,3-3h1.9c1.7,0,2.8,1.3,3,3L102.9,148.2z M94.7,140H98
		l-1.3-11.5H96L94.7,140z"/>
	<path fill="#FFFFFF" d="M112.9,125.4c0.5,0,0.8,0.3,0.8,0.8v1.5c0,0.5-0.3,0.8-0.8,0.8h-3.3v19.8c0,0.5-0.3,0.8-0.8,0.8h-2.3
		c-0.5,0-0.8-0.3-0.8-0.8v-19.8h-3.3c-0.5,0-0.8-0.3-0.8-0.8v-1.5c0-0.5,0.3-0.8,0.8-0.8H112.9z"/>
	<path fill="#FFFFFF" d="M118.1,125.4c0.5,0,0.8,0.3,0.8,0.8v22.1c0,0.5-0.3,0.8-0.8,0.8h-2.3c-0.5,0-0.8-0.3-0.8-0.8v-22.1
		c0-0.5,0.3-0.8,0.8-0.8H118.1z"/>
	<path fill="#FFFFFF" d="M126.1,128.5c-0.5,0-0.8,0.3-0.8,0.8v15.9c0,0.5,0.3,0.8,0.8,0.8h2.5c0.5,0,0.8-0.3,0.8-0.8v-2.5
		c0-0.5,0.3-0.8,0.8-0.8h2.3c0.5,0,0.8,0.3,0.8,0.8v3.4c0,1.7-1.3,3-3,3h-5.7c-1.7,0-3-1.3-3-3v-17.6c0-1.7,1.3-3,3-3h5.5
		c1.7,0,3,1.3,3,3v3.4c0,0.5-0.3,0.8-0.8,0.8H130c-0.5,0-0.8-0.3-0.8-0.8v-2.5c0-0.4-0.2-0.8-0.8-0.8H126.1z"/>
	<path fill="#FFFFFF" d="M147.2,148.2c0,0.5-0.2,0.8-0.7,0.8h-2.3c-0.5,0-0.8-0.3-0.8-0.8l-0.6-5.1h-4.1l-0.6,5.1
		c0,0.5-0.3,0.8-0.8,0.8h-2.4c-0.5,0-0.8-0.3-0.7-0.8l2.5-19.9c0.2-1.7,1.3-3,3-3h1.9c1.7,0,2.8,1.3,3,3L147.2,148.2z M139,140h3.3
		l-1.3-11.5h-0.7L139,140z"/>
	<path opacity="0.2" fill="#FFFFFF" d="M75.9,107.9c0,0-0.1-0.1-0.1-0.1c-0.1-0.1-0.1-0.2-0.2-0.2c0,0-0.1-0.1-0.1-0.1
		c-0.1-0.1-0.2-0.2-0.3-0.3c0,0,0,0,0-0.1c-0.1-0.1-0.2-0.3-0.3-0.4c0,0-0.1-0.1-0.1-0.1c-0.1-0.1-0.1-0.2-0.2-0.3
		c0-0.1-0.1-0.1-0.1-0.2c-0.1-0.1-0.1-0.2-0.2-0.3c0-0.1-0.1-0.1-0.1-0.2c-0.1-0.1-0.1-0.2-0.2-0.4c0-0.1-0.1-0.1-0.1-0.2
		c-0.1-0.1-0.1-0.3-0.2-0.4c0-0.1,0-0.1-0.1-0.2c-0.1-0.2-0.1-0.4-0.2-0.7c0,0,0-0.1,0-0.1c0-0.2-0.1-0.4-0.1-0.6
		c0-0.1,0-0.2-0.1-0.3c0-0.2-0.1-0.3-0.1-0.5c0-0.1,0-0.2,0-0.3c0-0.2,0-0.3-0.1-0.5c0-0.1,0-0.2,0-0.3c0-0.2,0-0.4,0-0.6
		c0-0.1,0-0.2,0-0.3c0-0.3,0-0.6,0-0.9c0,0,0,0,0,0v-6.7c0,0,0,0,0,0c0,0,0.1-1.9-1.2-3.3c-1-1-2.4-1.5-4.4-1.5h-1.6
		c0.1,0.1,0.2,0.1,0.2,0.2c0,0,0.1,0.1,0.1,0.1c0.2,0.1,0.3,0.3,0.4,0.4c1.6,1.7,1.5,3.9,1.5,4.2l0,5.6c1.1,0.1,1.9,0.9,1.9,2v4
		c0,0.1,0.1,0.1,0.1,0.2c0,0,0.1,0.1,0.1,0.1c0.1,0.1,0.2,0.2,0.3,0.3c0,0,0,0,0.1,0.1c0.1,0.1,0.3,0.2,0.4,0.4c0,0,0.1,0.1,0.1,0.1
		c0.1,0.1,0.2,0.2,0.3,0.3c0,0,0,0,0.1,0.1c0.1,0.1,0.3,0.2,0.4,0.3c0,0,0.1,0.1,0.1,0.1c0.1,0.1,0.2,0.2,0.4,0.2c0,0,0.1,0,0.1,0.1
		c0.1,0.1,0.3,0.2,0.4,0.3c0,0,0.1,0,0.1,0.1c0.1,0.1,0.2,0.1,0.4,0.2c0,0,0.1,0,0.1,0c0.1,0.1,0.3,0.2,0.4,0.2c0,0,0.1,0,0.1,0.1
		c0.1,0.1,0.2,0.1,0.4,0.2c0,0,0.1,0,0.1,0c0.1,0.1,0.3,0.1,0.4,0.2c0,0,0.1,0,0.1,0c0.1,0,0.2,0.1,0.3,0.1c0,0,0.1,0,0.1,0
		c0.1,0.1,0.3,0.1,0.4,0.2C75.8,107.9,75.8,107.9,75.9,107.9c0,0.1,0,0.1,0.1,0.1C76,107.9,75.9,107.9,75.9,107.9z"/>
	<path opacity="0.2" fill="#FFFFFF" d="M94.2,48.6h-2.9c-5.8,0-10.6,4.8-10.6,10.6c0,0.5,0,1,0.1,1.4c0,0.1,0,0.1,0,0.2
		c0.1,0.3,0.1,0.6,0.2,1c0,0,0,0,0,0.1c0,0.2,0.1,0.3,0.1,0.5c0,0,0,0,0,0c1.1,3.5,3.9,6.2,7.4,7.1c0,0,0,0,0,0
		c0.2,0,0.3,0.1,0.5,0.1c0,0,0,0,0,0c0.1,0,0.3,0.1,0.4,0.1c0,0,0.1,0,0.1,0c0.1,0,0.3,0,0.4,0c0,0,0.1,0,0.1,0c0.1,0,0.2,0,0.4,0
		c0.1,0,0.1,0,0.2,0c0.1,0,0.2,0,0.3,0c0.1,0,0.2,0,0.2,0c0,0,0,0,0,0c0.3,0,0.5,0.2,0.6,0.5c0,0,0,0.1,0,0.1v13.2
		c0.8-1.1,2-2.6,3.3-4.4c0,0,0,0,0,0c0.2-0.2,0.4-0.5,0.6-0.7c0,0,0.1-0.1,0.1-0.1c0.1-0.2,0.3-0.4,0.4-0.6c0.1-0.1,0.1-0.2,0.2-0.2
		c0.2-0.2,0.3-0.5,0.5-0.7c0.1-0.1,0.1-0.1,0.2-0.2c0.1-0.2,0.3-0.4,0.4-0.5c0.1-0.1,0.1-0.2,0.2-0.2c0.2-0.2,0.4-0.5,0.5-0.7
		c0.1-0.1,0.1-0.1,0.2-0.2c0.1-0.2,0.3-0.4,0.4-0.6c0.1-0.1,0.1-0.2,0.2-0.3c0.2-0.2,0.4-0.5,0.5-0.7c0.1-0.1,0.1-0.1,0.2-0.2
		c0.1-0.2,0.3-0.4,0.4-0.6c0.1-0.1,0.1-0.2,0.2-0.3c0.2-0.2,0.4-0.5,0.6-0.7c3.7-4.9,3.7-9.1,3.7-10.9l0-0.3v-0.1c0,0,0,0,0,0l0-0.2
		c0-0.1,0-0.1,0-0.2l-0.1-1.7c0-0.1,0-0.3,0-0.4c0,0,0,0,0,0c0,0,0-0.1,0-0.1c0-0.1,0-0.1,0-0.2l0,0v0
		C103.8,52.5,99.4,48.6,94.2,48.6z"/>
	<path opacity="0.2" fill="#FFFFFF" d="M64.8,40.2c-0.1,0.1-0.3,0.3-0.4,0.4c0,0,0,0-0.1,0.1c-0.1,0.1-0.3,0.3-0.4,0.4c0,0,0,0,0,0
		c-0.1,0.1-0.3,0.3-0.4,0.5c0,0,0,0,0,0c-0.1,0.2-0.2,0.3-0.4,0.5c0,0,0,0,0,0c-0.1,0.2-0.2,0.3-0.3,0.5c0,0,0,0,0,0
		c-0.1,0.2-0.2,0.3-0.3,0.5c0,0,0,0,0,0c-0.1,0.2-0.2,0.3-0.3,0.5c0,0,0,0,0,0.1c-0.1,0.2-0.2,0.3-0.2,0.5c0,0,0,0.1,0,0.1
		c-0.1,0.2-0.1,0.3-0.2,0.5c0,0,0,0.1-0.1,0.1c-0.1,0.1-0.1,0.3-0.2,0.4c0,0.1,0,0.1-0.1,0.2c0,0.1-0.1,0.3-0.1,0.4
		c0,0.1,0,0.1-0.1,0.2c0,0.1-0.1,0.3-0.1,0.4c0,0.1,0,0.2-0.1,0.2c0,0.1-0.1,0.2-0.1,0.4c0,0.1,0,0.2-0.1,0.3c0,0.1,0,0.2-0.1,0.4
		c0,0.1,0,0.2,0,0.3c0,0.1,0,0.2,0,0.4c0,0.1,0,0.2,0,0.3c0,0.1,0,0.3,0,0.4c0,0.1,0,0.2,0,0.2c0,0.2,0,0.4,0,0.6v8.9
		c0.6-1.2,1.3-2.7,2.1-4.5c0.7-1.8,1.8-3.3,3.2-4.5c-1.4-3.6-2-6.3-2.1-6.4c-0.1-0.6,0-1,0.1-1.2c0-0.1,0.1-0.2,0.2-0.2
		c0.5-0.6,1.3-0.7,1.6-0.7c0,0,0.1,0,0.1,0h17.5c0,0-0.1-0.1-0.1-0.1c-0.1-0.1-0.1-0.1-0.2-0.2c-0.1-0.1-0.2-0.2-0.3-0.3
		c-0.1-0.1-0.1-0.1-0.2-0.2c-0.1-0.1-0.2-0.2-0.3-0.3c-0.1-0.1-0.1-0.1-0.2-0.2c-0.1-0.1-0.3-0.2-0.4-0.3c-0.1,0-0.1-0.1-0.2-0.1
		c-0.1-0.1-0.3-0.2-0.5-0.3c0,0-0.1-0.1-0.1-0.1c-0.4-0.3-0.8-0.5-1.3-0.7c0,0-0.1,0-0.1-0.1c-0.2-0.1-0.3-0.2-0.5-0.2
		c-0.1,0-0.1-0.1-0.2-0.1c-0.1-0.1-0.3-0.1-0.4-0.2c-0.1,0-0.2-0.1-0.3-0.1c-0.1,0-0.3-0.1-0.4-0.1c-0.1,0-0.2-0.1-0.3-0.1
		c-0.1,0-0.3-0.1-0.4-0.1c-0.1,0-0.2,0-0.3-0.1c-0.1,0-0.3-0.1-0.4-0.1c-0.1,0-0.2,0-0.3-0.1c-0.1,0-0.3,0-0.4-0.1
		c-0.1,0-0.2,0-0.3,0c-0.2,0-0.3,0-0.5,0c-0.1,0-0.2,0-0.2,0c-0.2,0-0.5,0-0.7,0C70.2,36.8,67.1,38.1,64.8,40.2
		C64.8,40.2,64.8,40.2,64.8,40.2z"/>
	<path opacity="0.2" fill="#FFFFFF" d="M115.8,91.7c0.1,0.1,0.2,0.2,0.3,0.3c1,1.1,1,2.5,1,2.7l0,3.5h1.2h1.9v-3.5c0,0,0,0,0,0
		c0,0,0.1-1.2-0.8-2.1c-0.6-0.6-1.6-1-2.8-1h-1.1C115.7,91.5,115.7,91.6,115.8,91.7C115.8,91.6,115.8,91.7,115.8,91.7z"/>
	<path opacity="0.2" fill="#FFFFFF" d="M133.8,66.6H132c-3.7,0-6.8,3-6.8,6.8c0,0.3,0,0.6,0.1,0.9c0,0,0,0.1,0,0.1
		c0,0.2,0.1,0.4,0.1,0.6c0,0,0,0,0,0c0,0.1,0.1,0.2,0.1,0.3c0,0,0,0,0,0c0.7,2.2,2.5,4,4.8,4.6c0,0,0,0,0,0c0.1,0,0.2,0,0.3,0.1
		c0,0,0,0,0,0c0.1,0,0.2,0,0.3,0c0,0,0,0,0.1,0c0.1,0,0.2,0,0.2,0c0,0,0.1,0,0.1,0c0.1,0,0.2,0,0.2,0c0,0,0.1,0,0.1,0
		c0.1,0,0.1,0,0.2,0c0.1,0,0.1,0,0.2,0c0,0,0,0,0,0c0.2,0,0.3,0.1,0.4,0.3c0,0,0,0.1,0,0.1V89c0.5-0.7,1.3-1.7,2.1-2.8c0,0,0,0,0,0
		c0.1-0.2,0.2-0.3,0.4-0.5c0,0,0-0.1,0.1-0.1c0.1-0.1,0.2-0.2,0.3-0.4c0-0.1,0.1-0.1,0.1-0.2c0.1-0.1,0.2-0.3,0.3-0.4
		c0,0,0.1-0.1,0.1-0.1c0.1-0.1,0.2-0.2,0.3-0.3c0,0,0.1-0.1,0.1-0.2c0.1-0.2,0.2-0.3,0.4-0.5c0,0,0.1-0.1,0.1-0.1
		c0.1-0.1,0.2-0.2,0.3-0.4c0-0.1,0.1-0.1,0.1-0.2c0.1-0.2,0.2-0.3,0.4-0.5c0,0,0.1-0.1,0.1-0.1c0.1-0.1,0.2-0.2,0.3-0.4
		c0-0.1,0.1-0.1,0.1-0.2c0.1-0.2,0.2-0.3,0.4-0.5c2.4-3.1,2.4-5.8,2.4-7l0-0.2v-0.1c0,0,0,0,0,0V74c0,0,0-0.1,0-0.1l0-1.1
		c0-0.1,0-0.2,0-0.3l0,0c0,0,0,0,0-0.1c0,0,0-0.1,0-0.1l0,0v0C140,69,137.2,66.6,133.8,66.6z"/>
	<path opacity="0.2" fill="#FFFFFF" d="M115,61.2c-0.1,0.1-0.2,0.2-0.3,0.3c0,0,0,0,0,0c-0.1,0.1-0.2,0.2-0.2,0.3c0,0,0,0,0,0
		c-0.1,0.1-0.2,0.2-0.3,0.3c0,0,0,0,0,0c-0.1,0.1-0.2,0.2-0.2,0.3c0,0,0,0,0,0c-0.1,0.1-0.2,0.2-0.2,0.3c0,0,0,0,0,0
		c-0.1,0.1-0.1,0.2-0.2,0.3c0,0,0,0,0,0c-0.1,0.1-0.1,0.2-0.2,0.3c0,0,0,0,0,0c-0.1,0.1-0.1,0.2-0.2,0.3c0,0,0,0,0,0.1
		c0,0.1-0.1,0.2-0.1,0.3c0,0,0,0.1,0,0.1c0,0.1-0.1,0.2-0.1,0.3c0,0,0,0.1,0,0.1c0,0.1-0.1,0.2-0.1,0.3c0,0,0,0.1,0,0.1
		c0,0.1,0,0.2-0.1,0.2c0,0.1,0,0.1,0,0.2c0,0.1,0,0.2-0.1,0.2c0,0.1,0,0.1,0,0.2c0,0.1,0,0.2,0,0.2c0,0.1,0,0.1,0,0.2
		c0,0.1,0,0.2,0,0.2c0,0.1,0,0.1,0,0.2c0,0.1,0,0.2,0,0.3c0,0,0,0.1,0,0.1c0,0.1,0,0.3,0,0.4V73c0.4-0.8,0.8-1.7,1.3-2.9
		c0.5-1.1,1.2-2.1,2.1-2.9c-0.9-2.3-1.3-4-1.3-4.1c-0.1-0.4,0-0.6,0.1-0.8c0-0.1,0.1-0.1,0.1-0.2c0.3-0.4,0.8-0.4,1-0.4c0,0,0,0,0,0
		h11.2c0,0,0-0.1-0.1-0.1c0,0-0.1-0.1-0.1-0.1c-0.1-0.1-0.1-0.1-0.2-0.2c0,0-0.1-0.1-0.1-0.1c-0.1-0.1-0.1-0.1-0.2-0.2
		c0,0-0.1-0.1-0.1-0.1c-0.1-0.1-0.2-0.1-0.2-0.2c0,0-0.1-0.1-0.1-0.1c-0.1-0.1-0.2-0.1-0.3-0.2c0,0-0.1,0-0.1-0.1
		c-0.3-0.2-0.5-0.3-0.8-0.5c0,0-0.1,0-0.1,0c-0.1-0.1-0.2-0.1-0.3-0.1c0,0-0.1,0-0.1-0.1c-0.1,0-0.2-0.1-0.3-0.1
		c-0.1,0-0.1,0-0.2-0.1c-0.1,0-0.2-0.1-0.3-0.1c-0.1,0-0.1,0-0.2-0.1c-0.1,0-0.2,0-0.3-0.1c-0.1,0-0.1,0-0.2,0c-0.1,0-0.2,0-0.3-0.1
		c-0.1,0-0.1,0-0.2,0c-0.1,0-0.2,0-0.3,0c-0.1,0-0.1,0-0.2,0c-0.1,0-0.2,0-0.3,0c-0.1,0-0.1,0-0.2,0c-0.2,0-0.3,0-0.5,0
		C118.4,59,116.5,59.8,115,61.2C115,61.2,115,61.2,115,61.2z"/>
	<path opacity="0.2" fill="#FFFFFF" d="M25.5,99.3c0-0.7,0.5-1.2,1.2-1.2h0.6v-3.5c0,0,0,0,0,0c0,0,0.1-1.2-0.8-2.1
		c-0.6-0.6-1.6-1-2.8-1h-1.1c0.1,0,0.1,0.1,0.1,0.1c0,0,0.1,0,0.1,0.1c0.1,0.1,0.2,0.2,0.3,0.3c1,1.1,1,2.5,1,2.7l0,4.3
		c0,0.1,0,0.3,0,0.4c0,0,0,0.1,0,0.1c0,0.1,0,0.2,0,0.4c0,0,0,0,0,0c0,0.1,0.1,0.2,0.1,0.4c0,0,0,0.1,0,0.1c0,0.1,0.1,0.2,0.1,0.3
		c0,0,0,0,0,0c0,0.1,0.1,0.2,0.1,0.3c0,0,0,0.1,0,0.1c0,0.1,0.1,0.2,0.1,0.3c0,0,0,0,0,0c0.1,0.1,0.1,0.2,0.2,0.3c0,0,0,0,0,0.1
		c0.1,0.1,0.1,0.2,0.2,0.2c0,0,0,0,0,0c0.1,0.1,0.1,0.2,0.2,0.3c0,0,0,0,0,0V99.3z"/>
	<path opacity="0.2" fill="#FFFFFF" d="M42.8,81.6v-10h-2c-0.9,0-1.9-0.2-1.9-2.1c0-0.4,0.1-1.5,0.3-2.9H39c-3.7,0-6.8,3-6.8,6.8
		c0,0.3,0,0.6,0.1,0.9c0,0,0,0.1,0,0.1c0,0.2,0.1,0.4,0.1,0.6c0,0,0,0,0,0c0,0.1,0.1,0.2,0.1,0.3c0,0,0,0,0,0c0.7,2.2,2.5,4,4.8,4.6
		c0,0,0,0,0,0c0.1,0,0.2,0,0.3,0.1c0,0,0,0,0,0c0.1,0,0.2,0,0.3,0c0,0,0,0,0.1,0c0.1,0,0.2,0,0.2,0c0,0,0.1,0,0.1,0
		c0.1,0,0.2,0,0.2,0c0,0,0.1,0,0.1,0c0.1,0,0.1,0,0.2,0c0.1,0,0.1,0,0.2,0c0,0,0,0,0,0c0.2,0,0.3,0.1,0.4,0.3c0,0,0,0.1,0,0.1V89
		c0.5-0.7,1.3-1.7,2.1-2.8c0,0,0,0,0,0c0.1-0.2,0.2-0.3,0.4-0.5c0,0,0-0.1,0.1-0.1c0.1-0.1,0.2-0.2,0.3-0.4c0-0.1,0.1-0.1,0.1-0.2
		c0.1-0.1,0.2-0.3,0.3-0.4c0,0,0.1-0.1,0.1-0.1c0.1-0.1,0.2-0.2,0.3-0.3c0,0,0,0,0.1-0.1C42.9,83.4,42.8,82.6,42.8,81.6z"/>
	<path opacity="0.2" fill="#FFFFFF" d="M22,61.2c-0.1,0.1-0.2,0.2-0.3,0.3c0,0,0,0,0,0c-0.1,0.1-0.2,0.2-0.2,0.3c0,0,0,0,0,0
		c-0.1,0.1-0.2,0.2-0.3,0.3c0,0,0,0,0,0c-0.1,0.1-0.2,0.2-0.2,0.3c0,0,0,0,0,0c-0.1,0.1-0.2,0.2-0.2,0.3c0,0,0,0,0,0
		c-0.1,0.1-0.1,0.2-0.2,0.3c0,0,0,0,0,0c-0.1,0.1-0.1,0.2-0.2,0.3c0,0,0,0,0,0c-0.1,0.1-0.1,0.2-0.2,0.3c0,0,0,0,0,0.1
		c0,0.1-0.1,0.2-0.1,0.3c0,0,0,0.1,0,0.1c0,0.1-0.1,0.2-0.1,0.3c0,0,0,0.1,0,0.1c0,0.1-0.1,0.2-0.1,0.3c0,0,0,0.1,0,0.1
		c0,0.1,0,0.2-0.1,0.2c0,0.1,0,0.1,0,0.2c0,0.1,0,0.2-0.1,0.2c0,0.1,0,0.1,0,0.2c0,0.1,0,0.2,0,0.2c0,0.1,0,0.1,0,0.2
		c0,0.1,0,0.2,0,0.2c0,0.1,0,0.1,0,0.2c0,0.1,0,0.2,0,0.3c0,0,0,0.1,0,0.1c0,0.1,0,0.3,0,0.4V73c0.4-0.8,0.8-1.7,1.3-2.9
		c0.5-1.1,1.2-2.1,2.1-2.9c-0.9-2.3-1.3-4-1.3-4.1c-0.1-0.4,0-0.6,0.1-0.8c0-0.1,0.1-0.1,0.1-0.2c0.3-0.4,0.8-0.4,1-0.4c0,0,0,0,0,0
		h11.2c0,0,0-0.1-0.1-0.1c0,0-0.1-0.1-0.1-0.1c-0.1-0.1-0.1-0.1-0.2-0.2c0,0-0.1-0.1-0.1-0.1c-0.1-0.1-0.1-0.1-0.2-0.2
		c0,0-0.1-0.1-0.1-0.1c-0.1-0.1-0.2-0.1-0.2-0.2c0,0-0.1-0.1-0.1-0.1c-0.1-0.1-0.2-0.1-0.3-0.2c0,0-0.1,0-0.1-0.1
		c-0.3-0.2-0.5-0.3-0.8-0.5c0,0-0.1,0-0.1,0c-0.1-0.1-0.2-0.1-0.3-0.1c0,0-0.1,0-0.1-0.1c-0.1,0-0.2-0.1-0.3-0.1
		c-0.1,0-0.1,0-0.2-0.1c-0.1,0-0.2-0.1-0.3-0.1c-0.1,0-0.1,0-0.2-0.1c-0.1,0-0.2,0-0.3-0.1c-0.1,0-0.1,0-0.2,0c-0.1,0-0.2,0-0.3-0.1
		c-0.1,0-0.1,0-0.2,0c-0.1,0-0.2,0-0.3,0c-0.1,0-0.1,0-0.2,0c-0.1,0-0.2,0-0.3,0c-0.1,0-0.1,0-0.2,0c-0.2,0-0.3,0-0.5,0
		C25.5,59,23.5,59.8,22,61.2C22,61.2,22,61.2,22,61.2z"/>
	<path opacity="0.4" fill="#FFFFFF" d="M63.7,100.1c0-1.2,0.8-2,2-2h1.2l0-5.7c0,0,0,0,0,0c0,0,0.1-1.9-1.2-3.3
		c-0.1-0.1-0.2-0.2-0.4-0.3c0,0-0.1-0.1-0.1-0.1c-0.1-0.1-0.2-0.1-0.3-0.2c-0.1,0-0.1-0.1-0.2-0.1c-0.1-0.1-0.2-0.1-0.3-0.1
		c-0.1,0-0.1-0.1-0.2-0.1c-0.1,0-0.2-0.1-0.3-0.1c-0.1,0-0.1-0.1-0.2-0.1c-0.1,0-0.2-0.1-0.3-0.1c-0.1,0-0.2,0-0.2-0.1
		c-0.1,0-0.2,0-0.4-0.1c-0.1,0-0.2,0-0.2,0c-0.1,0-0.3,0-0.4,0c-0.1,0-0.1,0-0.2,0c0,0,0,0-0.1,0l0,3.6l0,0.5l0,7.4
		c0,0.3,0,0.5,0,0.8c0,0.1,0,0.2,0,0.2c0,0.2,0,0.3,0,0.5c0,0.1,0,0.2,0,0.3c0,0.1,0,0.3,0.1,0.4c0,0.1,0,0.2,0.1,0.3
		c0,0.1,0.1,0.3,0.1,0.4c0,0.1,0,0.2,0.1,0.3c0,0.1,0.1,0.2,0.1,0.3c0,0.1,0.1,0.2,0.1,0.2c0,0.1,0.1,0.2,0.1,0.3
		c0,0.1,0.1,0.2,0.1,0.2c0,0.1,0.1,0.2,0.1,0.3c0,0.1,0.1,0.1,0.1,0.2c0.1,0.1,0.1,0.2,0.2,0.3c0,0.1,0.1,0.1,0.1,0.2
		c0.1,0.2,0.2,0.3,0.3,0.5c0,0,0,0,0,0c0.1,0.1,0.1,0.1,0.2,0.2V100.1z"/>
	<path opacity="0.4" fill="#FFFFFF" d="M70,108.3c0.1,0,0.1,0,0.2,0c0.1,0,0.2,0,0.4,0.1c0.1,0,0.2,0,0.2,0c0.1,0,0.3,0,0.4,0.1
		c0.1,0,0.2,0,0.2,0c0.1,0,0.3,0,0.4,0c0.1,0,0.2,0,0.2,0c0.2,0,0.3,0,0.5,0c0.1,0,0.1,0,0.2,0c0.2,0,0.4,0,0.6,0c0,0,0.1,0,0.1,0
		c0.2,0,0.4,0,0.6,0c0.1,0,0.2,0,0.2,0c0.1,0,0.2,0,0.3,0c0,0,0,0,0,0c0,0-0.1,0-0.1-0.1c-0.1,0-0.1-0.1-0.2-0.1c0,0-0.1,0-0.1-0.1
		c-0.1,0-0.1-0.1-0.2-0.1c0,0-0.1,0-0.1-0.1c-0.1,0-0.2-0.1-0.2-0.1c0,0-0.1,0-0.1-0.1c-0.1-0.1-0.2-0.1-0.3-0.2c0,0,0,0-0.1,0
		c-0.1-0.1-0.2-0.1-0.4-0.2c0,0-0.1,0-0.1-0.1c-0.1,0-0.2-0.1-0.2-0.1c0,0-0.1-0.1-0.1-0.1c-0.1,0-0.2-0.1-0.2-0.1
		c0,0-0.1-0.1-0.1-0.1c-0.1,0-0.1-0.1-0.2-0.1c0,0-0.1-0.1-0.1-0.1c-0.1-0.1-0.2-0.1-0.2-0.2c0,0-0.1-0.1-0.1-0.1
		c-0.1-0.1-0.2-0.2-0.3-0.3c0,0,0,0,0,0c-0.1-0.1-0.2-0.2-0.3-0.2c0,0-0.1-0.1-0.1-0.1c-0.1-0.1-0.1-0.1-0.2-0.2V108.3z"/>
	<path opacity="0.4" fill="#FFFFFF" d="M65.6,42.3C65.6,42.3,65.6,42.3,65.6,42.3c-0.3,0-0.6,0.1-0.7,0.2c-0.1,0.1-0.1,0.3,0,0.5
		c0,0,0,0,0,0c0,0,0,0,0,0c0,0,0,0,0,0.1c0,0,0,0,0,0.1c0,0,0,0,0,0.1c0.3,1.2,1.9,7.3,5.6,13.3c1.6,2.6,3.3,4.8,5.2,6.7
		c0,0,0,0,0.1,0c2.5,2.5,5.3,4.3,8.4,5.4c0,0,0,0,0,0c-0.1-0.1-0.2-0.2-0.3-0.3c-0.1,0-0.1-0.1-0.2-0.1c-0.2-0.1-0.3-0.3-0.4-0.4
		c0,0,0,0,0,0c-0.1-0.1-0.3-0.3-0.4-0.4c0-0.1-0.1-0.1-0.1-0.2c-0.1-0.1-0.2-0.2-0.3-0.3c-0.1-0.1-0.1-0.1-0.2-0.2
		c-0.1-0.1-0.2-0.2-0.2-0.3c0-0.1-0.1-0.1-0.1-0.2c-0.1-0.1-0.2-0.2-0.2-0.4c0-0.1-0.1-0.1-0.1-0.2c-0.1-0.2-0.2-0.3-0.3-0.5
		c0,0,0-0.1-0.1-0.1c-0.1-0.1-0.2-0.3-0.2-0.4c0-0.1-0.1-0.1-0.1-0.2c-0.1-0.1-0.1-0.2-0.2-0.4c0-0.1-0.1-0.1-0.1-0.2
		c-0.1-0.1-0.1-0.2-0.2-0.4c0-0.1-0.1-0.1-0.1-0.2c-0.1-0.2-0.1-0.3-0.2-0.5c0,0,0-0.1,0-0.1c-0.1-0.2-0.1-0.4-0.2-0.6
		c0-0.1,0-0.1,0-0.2c0-0.1-0.1-0.3-0.1-0.4c0-0.1,0-0.2,0-0.2c0-0.1,0-0.3-0.1-0.4c0-0.1,0-0.2,0-0.2c0-0.1,0-0.3,0-0.4
		c0-0.1,0-0.1,0-0.2c0-0.2,0-0.4,0-0.7c0-6.5,5.3-11.8,11.8-11.8h2.9c0.2,0,0.4,0,0.6,0c0.1,0,0.1,0,0.2,0c0.1,0,0.3,0,0.4,0
		c0.1,0,0.1,0,0.2,0c0.1,0,0.3,0,0.4,0.1c0.1,0,0.1,0,0.2,0c0.1,0,0.3,0,0.4,0.1c0.1,0,0.1,0,0.2,0c0.2,0,0.3,0.1,0.5,0.1
		c0,0,0.1,0,0.1,0c0.2,0.1,0.4,0.1,0.6,0.2c0,0,0.1,0,0.1,0c0.1,0,0.3,0.1,0.4,0.2c0.1,0,0.1,0,0.2,0.1c0.1,0,0.2,0.1,0.4,0.2
		c0.1,0,0.1,0.1,0.2,0.1c0.1,0.1,0.2,0.1,0.3,0.2c0.1,0,0.1,0.1,0.2,0.1c0.1,0.1,0.3,0.1,0.4,0.2c0,0,0.1,0,0.1,0.1
		c0.2,0.1,0.3,0.2,0.5,0.3c0,0,0,0,0,0c0.2,0.1,0.3,0.2,0.4,0.3c0,0,0.1,0.1,0.1,0.1c0.1,0.1,0.2,0.2,0.3,0.3c0.1,0,0.1,0.1,0.2,0.1
		c0.1,0.1,0.2,0.2,0.3,0.3c0.1,0,0.1,0.1,0.2,0.1c0.1,0.1,0.2,0.2,0.3,0.3c0,0,0.1,0.1,0.1,0.1c0.1,0.1,0.2,0.2,0.3,0.4
		c0,0,0,0,0,0.1c0,0,0,0,0,0c0,0,0,0,0,0c-0.1-0.2-0.2-0.4-0.3-0.6c0-0.1-0.1-0.1-0.1-0.2c-0.1-0.2-0.2-0.3-0.3-0.5
		c0,0,0-0.1-0.1-0.1c-0.1-0.2-0.2-0.4-0.3-0.6c0,0,0-0.1-0.1-0.1c-0.1-0.1-0.2-0.3-0.3-0.4c0,0-0.1-0.1-0.1-0.1
		c-0.1-0.2-0.3-0.3-0.4-0.5c0,0,0,0,0,0c-0.1-0.2-0.3-0.3-0.5-0.5c0,0-0.1-0.1-0.1-0.1c-0.1-0.1-0.3-0.3-0.4-0.4
		c0,0-0.1-0.1-0.1-0.1c-0.2-0.2-0.3-0.3-0.5-0.5c0,0-0.1,0-0.1-0.1c-0.2-0.1-0.3-0.3-0.5-0.4c-0.1,0-0.1-0.1-0.2-0.1
		c-0.2-0.1-0.4-0.3-0.5-0.4c0,0,0,0-0.1,0c-0.2-0.1-0.4-0.3-0.6-0.4c-0.1,0-0.1-0.1-0.2-0.1c-0.2-0.1-0.4-0.2-0.5-0.3
		c-0.1,0-0.1-0.1-0.2-0.1c-0.2-0.1-0.5-0.2-0.7-0.4c0,0-0.1,0-0.1,0c-0.2-0.1-0.5-0.2-0.7-0.3C95.1,44,95,44,94.9,44
		c-0.2-0.1-0.5-0.2-0.7-0.3c0,0-0.1,0-0.1,0c-0.3-0.1-0.6-0.2-0.9-0.3c-0.1,0-0.1,0-0.2-0.1c-0.2-0.1-0.5-0.1-0.7-0.2
		c-0.1,0-0.2,0-0.2-0.1c-0.3-0.1-0.6-0.1-1-0.2c0,0-0.1,0-0.1,0c-0.3-0.1-0.6-0.1-0.9-0.2c-0.1,0-0.2,0-0.3,0
		c-0.3,0-0.6-0.1-0.9-0.1c-0.1,0-0.2,0-0.2,0c-0.4,0-0.7-0.1-1.1-0.1c-0.1,0-0.2,0-0.3,0c-0.3,0-0.6,0-0.9,0c-0.1,0-0.2,0-0.3,0
		c-0.4,0-0.8,0-1.2,0h-0.3L65.6,42.3C65.6,42.3,65.6,42.3,65.6,42.3z"/>
	<path opacity="0.4" fill="#FFFFFF" d="M53.9,39.5c-0.2,0.1-0.5,0.3-0.7,0.4c-0.2,0.1-0.4,0.3-0.6,0.4c0,0-0.1,0.1-0.1,0.1
		c-0.3,0.2-0.5,0.4-0.8,0.6c0,0,0,0,0,0c-0.3,0.2-0.5,0.4-0.8,0.6c0,0-0.1,0-0.1,0.1c2.9-0.1,5.3-0.3,7.3-0.6c0.1,0,0.2,0,0.3,0
		c0.1,0,0.2,0,0.4-0.1c0.2,0,0.3-0.1,0.5-0.1c0.1,0,0.1,0,0.2,0c0.2,0,0.4-0.1,0.6-0.1c0,0,0,0,0.1,0c1.2-0.2,2.2-0.5,3-0.7l0.1,0
		c0.5-0.6,1.1-1.1,1.8-1.5c0,0,0.1,0,0.1-0.1c0.1-0.1,0.3-0.2,0.4-0.3c0.1-0.1,0.2-0.1,0.3-0.2c0.1,0,0.1-0.1,0.2-0.1
		c0.1-0.1,0.3-0.2,0.4-0.2c0,0,0,0,0.1,0c1.5-0.8,3.1-1.4,4.8-1.7c0,0,0,0,0,0c-0.3,0-0.6,0-0.9-0.1c-0.1,0-0.2,0-0.2,0
		c-0.3,0-0.6,0-1,0c-5.2,0-9.7,1.4-10.3,1.7c0,0-0.1,0-0.1,0c0,0,0,0,0,0c-0.3,0.1-0.7,0.2-1,0.3c-0.1,0-0.1,0-0.2,0.1
		c-0.3,0.1-0.6,0.2-0.9,0.4c-0.1,0-0.1,0-0.2,0.1c-0.3,0.1-0.6,0.3-0.9,0.4c0,0-0.1,0-0.1,0c-0.3,0.1-0.5,0.2-0.7,0.4
		c-0.1,0.1-0.3,0.2-0.4,0.2C54.2,39.3,54.1,39.4,53.9,39.5z"/>
	<path opacity="0.4" fill="#FFFFFF" d="M113.1,98.1h3.2l0-3.5c0,0,0,0,0,0c0,0,0.1-1.2-0.8-2.1c-0.1-0.1-0.1-0.1-0.2-0.2
		c0,0-0.1,0-0.1-0.1c-0.1,0-0.1-0.1-0.2-0.1c0,0-0.1,0-0.1-0.1c-0.1,0-0.1-0.1-0.2-0.1c0,0-0.1,0-0.1-0.1c-0.1,0-0.1-0.1-0.2-0.1
		c0,0-0.1,0-0.1,0c-0.1,0-0.1,0-0.2-0.1c0,0-0.1,0-0.2,0c-0.1,0-0.1,0-0.2,0c-0.1,0-0.1,0-0.2,0c-0.1,0-0.2,0-0.3,0c0,0-0.1,0-0.1,0
		c0,0,0,0,0,0v2.3l0,0.3L113.1,98.1z"/>
	<path opacity="0.4" fill="#FFFFFF" d="M115.5,62.5C115.5,62.5,115.5,62.5,115.5,62.5c-0.2,0-0.4,0-0.4,0.1c-0.1,0.1,0,0.2,0,0.3
		c0,0,0,0,0,0c0,0,0,0,0,0c0,0,0,0,0,0c0,0,0,0,0,0c0,0,0,0,0,0c0.2,0.8,1.2,4.7,3.6,8.5c1,1.7,2.1,3.1,3.3,4.3c0,0,0,0,0,0
		c1.6,1.6,3.4,2.8,5.4,3.5c0,0,0,0,0,0c-0.1-0.1-0.1-0.1-0.2-0.2c0,0-0.1-0.1-0.1-0.1c-0.1-0.1-0.2-0.2-0.3-0.3c0,0,0,0,0,0
		c-0.1-0.1-0.2-0.2-0.3-0.3c0,0-0.1-0.1-0.1-0.1c-0.1-0.1-0.1-0.1-0.2-0.2c0,0-0.1-0.1-0.1-0.1c-0.1-0.1-0.1-0.1-0.2-0.2
		c0,0-0.1-0.1-0.1-0.1c-0.1-0.1-0.1-0.1-0.2-0.2c0,0,0-0.1-0.1-0.1c-0.1-0.1-0.1-0.2-0.2-0.3c0,0,0-0.1,0-0.1c0-0.1-0.1-0.2-0.1-0.3
		c0,0,0-0.1-0.1-0.1c0-0.1-0.1-0.2-0.1-0.2c0,0,0-0.1-0.1-0.1c0-0.1-0.1-0.2-0.1-0.2c0,0,0-0.1-0.1-0.1c0-0.1-0.1-0.2-0.1-0.3
		c0,0,0-0.1,0-0.1c0-0.1-0.1-0.3-0.1-0.4c0,0,0-0.1,0-0.1c0-0.1,0-0.2-0.1-0.3c0,0,0-0.1,0-0.1c0-0.1,0-0.2,0-0.3c0-0.1,0-0.1,0-0.2
		c0-0.1,0-0.2,0-0.3c0,0,0-0.1,0-0.1c0-0.1,0-0.3,0-0.4c0-4.2,3.4-7.6,7.6-7.6h1.9c0.1,0,0.3,0,0.4,0c0,0,0.1,0,0.1,0
		c0.1,0,0.2,0,0.3,0c0,0,0.1,0,0.1,0c0.1,0,0.2,0,0.2,0c0,0,0.1,0,0.1,0c0.1,0,0.2,0,0.2,0c0,0,0.1,0,0.1,0c0.1,0,0.2,0,0.3,0.1
		c0,0,0,0,0.1,0c0.1,0,0.2,0.1,0.4,0.1c0,0,0.1,0,0.1,0c0.1,0,0.2,0.1,0.3,0.1c0,0,0.1,0,0.1,0c0.1,0,0.2,0.1,0.2,0.1
		c0,0,0.1,0,0.1,0.1c0.1,0,0.1,0.1,0.2,0.1c0,0,0.1,0,0.1,0.1c0.1,0,0.2,0.1,0.2,0.1c0,0,0.1,0,0.1,0c0.1,0.1,0.2,0.1,0.3,0.2
		c0,0,0,0,0,0c0.1,0.1,0.2,0.1,0.3,0.2c0,0,0.1,0,0.1,0.1c0.1,0.1,0.1,0.1,0.2,0.2c0,0,0.1,0.1,0.1,0.1c0.1,0.1,0.1,0.1,0.2,0.2
		c0,0,0.1,0.1,0.1,0.1c0.1,0.1,0.1,0.1,0.2,0.2c0,0,0.1,0.1,0.1,0.1c0.1,0.1,0.1,0.2,0.2,0.2c0,0,0,0,0,0c0,0,0,0,0,0c0,0,0,0,0,0
		c-0.1-0.1-0.1-0.2-0.2-0.4c0,0,0-0.1-0.1-0.1c-0.1-0.1-0.1-0.2-0.2-0.3c0,0,0-0.1,0-0.1c-0.1-0.1-0.1-0.2-0.2-0.4c0,0,0,0,0-0.1
		c-0.1-0.1-0.1-0.2-0.2-0.3c0,0,0-0.1-0.1-0.1c-0.1-0.1-0.2-0.2-0.3-0.3c0,0,0,0,0,0c-0.1-0.1-0.2-0.2-0.3-0.3c0,0-0.1-0.1-0.1-0.1
		c-0.1-0.1-0.2-0.2-0.3-0.3c0,0,0,0-0.1-0.1c-0.1-0.1-0.2-0.2-0.3-0.3c0,0,0,0-0.1,0c-0.1-0.1-0.2-0.2-0.3-0.3c0,0-0.1-0.1-0.1-0.1
		c-0.1-0.1-0.2-0.2-0.3-0.3c0,0,0,0,0,0c-0.1-0.1-0.3-0.2-0.4-0.3c0,0-0.1,0-0.1-0.1c-0.1-0.1-0.2-0.1-0.4-0.2c0,0-0.1,0-0.1-0.1
		c-0.2-0.1-0.3-0.2-0.5-0.2c0,0,0,0-0.1,0c-0.1-0.1-0.3-0.1-0.4-0.2c0,0-0.1,0-0.1-0.1c-0.1-0.1-0.3-0.1-0.4-0.2c0,0-0.1,0-0.1,0
		c-0.2-0.1-0.4-0.1-0.6-0.2c0,0-0.1,0-0.1,0c-0.2,0-0.3-0.1-0.5-0.1c-0.1,0-0.1,0-0.2,0c-0.2,0-0.4-0.1-0.6-0.1c0,0,0,0-0.1,0
		c-0.2,0-0.4-0.1-0.6-0.1c-0.1,0-0.1,0-0.2,0c-0.2,0-0.4-0.1-0.6-0.1c0,0-0.1,0-0.1,0c-0.2,0-0.5,0-0.7-0.1c-0.1,0-0.1,0-0.2,0
		c-0.2,0-0.4,0-0.6,0c-0.1,0-0.1,0-0.2,0c-0.3,0-0.5,0-0.8,0h-0.2L115.5,62.5C115.5,62.5,115.5,62.5,115.5,62.5z"/>
	<path opacity="0.4" fill="#FFFFFF" d="M108,60.7c-0.1,0.1-0.3,0.2-0.4,0.3c-0.1,0.1-0.3,0.2-0.4,0.2c0,0-0.1,0-0.1,0.1
		c-0.2,0.1-0.3,0.2-0.5,0.4c0,0,0,0,0,0c-0.2,0.1-0.3,0.3-0.5,0.4c0,0,0,0-0.1,0c1.9,0,3.4-0.2,4.7-0.4c0.1,0,0.1,0,0.2,0
		c0.1,0,0.2,0,0.2,0c0.1,0,0.2,0,0.3,0c0,0,0.1,0,0.1,0c0.1,0,0.3,0,0.4-0.1c0,0,0,0,0,0c0.8-0.2,1.4-0.3,1.9-0.4l0.1,0
		c0.3-0.4,0.7-0.7,1.1-1c0,0,0,0,0.1,0c0.1-0.1,0.2-0.1,0.2-0.2c0.1,0,0.1-0.1,0.2-0.1c0,0,0.1,0,0.1-0.1c0.1-0.1,0.2-0.1,0.3-0.2
		c0,0,0,0,0,0c0.9-0.5,2-0.9,3.1-1.1c0,0,0,0,0,0c-0.2,0-0.4,0-0.6,0c-0.1,0-0.1,0-0.2,0c-0.2,0-0.4,0-0.6,0c-3.3,0-6.2,0.9-6.6,1.1
		c0,0,0,0,0,0c0,0,0,0,0,0c-0.2,0.1-0.4,0.1-0.6,0.2c0,0-0.1,0-0.1,0c-0.2,0.1-0.4,0.1-0.6,0.2c0,0-0.1,0-0.1,0
		c-0.2,0.1-0.4,0.2-0.6,0.3c0,0,0,0-0.1,0c-0.2,0.1-0.3,0.2-0.5,0.2c-0.1,0-0.2,0.1-0.3,0.2C108.2,60.6,108.1,60.7,108,60.7z"/>
	<path opacity="0.4" fill="#FFFFFF" d="M20.2,98.1h0.9c0.8,0,1.6,0.3,2.3,0.7l0-4.2c0,0,0,0,0,0c0,0,0.1-1.2-0.8-2.1
		c-0.1-0.1-0.1-0.1-0.2-0.2c0,0-0.1,0-0.1-0.1c-0.1,0-0.1-0.1-0.2-0.1c0,0-0.1,0-0.1-0.1c-0.1,0-0.1-0.1-0.2-0.1c0,0-0.1,0-0.1-0.1
		c-0.1,0-0.1-0.1-0.2-0.1c0,0-0.1,0-0.1,0c-0.1,0-0.1,0-0.2-0.1c0,0-0.1,0-0.2,0c-0.1,0-0.1,0-0.2,0c-0.1,0-0.1,0-0.2,0
		c-0.1,0-0.2,0-0.3,0c0,0-0.1,0-0.1,0c0,0,0,0,0,0v2.3l0,0.3L20.2,98.1z"/>
	<path opacity="0.4" fill="#FFFFFF" d="M34.2,79.2c0,0-0.1-0.1-0.1-0.1c-0.1-0.1-0.2-0.2-0.3-0.3c0,0,0,0,0,0
		c-0.1-0.1-0.2-0.2-0.3-0.3c0,0-0.1-0.1-0.1-0.1c-0.1-0.1-0.1-0.1-0.2-0.2c0,0-0.1-0.1-0.1-0.1c-0.1-0.1-0.1-0.1-0.2-0.2
		c0,0-0.1-0.1-0.1-0.1c-0.1-0.1-0.1-0.1-0.2-0.2c0,0,0-0.1-0.1-0.1c-0.1-0.1-0.1-0.2-0.2-0.3c0,0,0-0.1,0-0.1c0-0.1-0.1-0.2-0.1-0.3
		c0,0,0-0.1-0.1-0.1c0-0.1-0.1-0.2-0.1-0.2c0,0,0-0.1-0.1-0.1c0-0.1-0.1-0.2-0.1-0.2c0,0,0-0.1-0.1-0.1c0-0.1-0.1-0.2-0.1-0.3
		c0,0,0-0.1,0-0.1c0-0.1-0.1-0.3-0.1-0.4c0,0,0-0.1,0-0.1c0-0.1,0-0.2-0.1-0.3c0,0,0-0.1,0-0.1c0-0.1,0-0.2,0-0.3c0-0.1,0-0.1,0-0.2
		c0-0.1,0-0.2,0-0.3c0,0,0-0.1,0-0.1c0-0.1,0-0.3,0-0.4c0-4.2,3.4-7.6,7.6-7.6h0.2c0.1-0.8,0.3-1.7,0.4-2.7c0,0-0.1,0-0.1,0
		c-0.2,0-0.4-0.1-0.6-0.1c0,0,0,0-0.1,0c-0.2,0-0.4-0.1-0.6-0.1c-0.1,0-0.1,0-0.2,0c-0.2,0-0.4-0.1-0.6-0.1c0,0-0.1,0-0.1,0
		c-0.2,0-0.5,0-0.7-0.1c-0.1,0-0.1,0-0.2,0c-0.2,0-0.4,0-0.6,0c-0.1,0-0.1,0-0.2,0c-0.3,0-0.5,0-0.8,0h-0.2h-12c0,0,0,0,0,0
		c0,0,0,0,0,0c-0.2,0-0.4,0-0.4,0.1c-0.1,0.1,0,0.2,0,0.3c0,0,0,0,0,0c0,0,0,0,0,0c0,0,0,0,0,0c0,0,0,0,0,0c0,0,0,0,0,0
		c0.2,0.8,1.2,4.7,3.6,8.5c1,1.7,2.1,3.1,3.3,4.3c0,0,0,0,0,0c1.6,1.6,3.4,2.8,5.4,3.5c0,0,0,0,0,0C34.3,79.3,34.3,79.2,34.2,79.2z"
		/>
	<path opacity="0.4" fill="#FFFFFF" d="M15.1,60.7c-0.1,0.1-0.3,0.2-0.4,0.3c-0.1,0.1-0.3,0.2-0.4,0.2c0,0-0.1,0-0.1,0.1
		c-0.2,0.1-0.3,0.2-0.5,0.4c0,0,0,0,0,0c-0.2,0.1-0.3,0.3-0.5,0.4c0,0,0,0-0.1,0c1.9,0,3.4-0.2,4.7-0.4c0.1,0,0.1,0,0.2,0
		c0.1,0,0.2,0,0.2,0c0.1,0,0.2,0,0.3,0c0,0,0.1,0,0.1,0c0.1,0,0.3,0,0.4-0.1c0,0,0,0,0,0c0.8-0.2,1.4-0.3,1.9-0.4l0.1,0
		c0.3-0.4,0.7-0.7,1.1-1c0,0,0,0,0.1,0c0.1-0.1,0.2-0.1,0.2-0.2c0.1,0,0.1-0.1,0.2-0.1c0,0,0.1,0,0.1-0.1c0.1-0.1,0.2-0.1,0.3-0.2
		c0,0,0,0,0,0c0.9-0.5,2-0.9,3.1-1.1c0,0,0,0,0,0c-0.2,0-0.4,0-0.6,0c-0.1,0-0.1,0-0.2,0c-0.2,0-0.4,0-0.6,0c-3.3,0-6.2,0.9-6.6,1.1
		c0,0,0,0,0,0c0,0,0,0,0,0c-0.2,0.1-0.4,0.1-0.6,0.2c0,0-0.1,0-0.1,0c-0.2,0.1-0.4,0.1-0.6,0.2c0,0-0.1,0-0.1,0
		c-0.2,0.1-0.4,0.2-0.6,0.3c0,0,0,0-0.1,0c-0.2,0.1-0.3,0.2-0.5,0.2c-0.1,0-0.2,0.1-0.3,0.2C15.2,60.6,15.2,60.7,15.1,60.7z"/>
	<path opacity="0.6" fill="#FFFFFF" d="M89.7,71c-0.1,0-0.3,0-0.4,0c-0.2,0-0.3,0-0.5,0c-0.2,0-0.4,0-0.6-0.1c-0.1,0-0.1,0-0.2,0
		c-4.7-0.7-9-2.8-12.8-6.4c-5.7,3.4-5.5,9.2-5.5,9.4c0,0,0,0,0,0v7.8c0,2.3-0.8,3.8-1.9,4.8c0.1,0,0.1,0,0.2,0c0.1,0,0.2,0,0.4,0
		c0.1,0,0.3,0,0.4,0c0.1,0,0.2,0,0.3,0.1c0.1,0,0.3,0.1,0.4,0.1c0.1,0,0.2,0,0.3,0.1c0.1,0,0.3,0.1,0.4,0.1c0.1,0,0.2,0.1,0.3,0.1
		c0.1,0,0.2,0.1,0.4,0.2c0.1,0,0.2,0.1,0.3,0.1c0.1,0.1,0.2,0.1,0.3,0.2c0.1,0,0.1,0.1,0.2,0.1c0.1,0.1,0.2,0.2,0.3,0.3
		c0.1,0,0.1,0.1,0.2,0.1c0.2,0.1,0.3,0.3,0.5,0.4c0.2,0.2,0.4,0.4,0.5,0.7c0,0,0,0,0,0.1c1,1.6,1,3.2,1,3.5l0,6.1h6.5
		c0.6-4.9,2.1-13.4,6.1-19.3c0.2-0.2,0.4-0.3,0.7-0.2c0.3,0.1,0.4,0.3,0.4,0.6v18.9h2.8V85.5V71c0,0-0.1,0-0.1,0
		C90.3,71,90,71,89.7,71z"/>
	<path opacity="0.6" fill="#FFFFFF" d="M54.8,65.3c1.8-1,3-2,4.5-4.4V49.8c0-0.2,0-0.4,0-0.7c0-0.1,0-0.1,0-0.2c0-0.2,0-0.3,0-0.5
		c0-0.1,0-0.1,0-0.2c0-0.2,0-0.3,0.1-0.5c0,0,0-0.1,0-0.1c0-0.2,0.1-0.4,0.1-0.6c0,0,0-0.1,0-0.1c0-0.2,0.1-0.3,0.1-0.5
		c0-0.1,0-0.1,0-0.2c0-0.2,0.1-0.3,0.1-0.5c0,0,0-0.1,0-0.1c0.1-0.4,0.3-0.9,0.5-1.3c0,0,0,0,0,0c0.1-0.2,0.2-0.4,0.3-0.6
		c0,0,0,0,0,0c0.4-0.7,0.8-1.4,1.3-2.1c-0.5,0.1-1.1,0.3-1.8,0.4c0,0-0.1,0-0.1,0c-0.2,0-0.5,0.1-0.7,0.1c-0.1,0-0.2,0-0.4,0.1
		c-0.1,0-0.2,0-0.3,0.1c-0.2,0-0.4,0.1-0.7,0.1c0,0,0,0,0,0c-2.6,2.8-3.9,6.6-3.9,11.1v12.5C54.3,65.7,54.5,65.5,54.8,65.3z"/>
	<path opacity="0.6" fill="#FFFFFF" d="M57.7,86.3c-1-0.8-1.9-2.2-1.9-4.8V73c0,0,0,0,0,0c0,0,0.1-2-1.7-4.3v13.8
		c0,1.9-0.7,3.1-1.6,3.9h2.7H57.7z"/>
	<path opacity="0.6" fill="#FFFFFF" d="M42.8,1.4C42.7,1,42.5,1,42.4,1c-0.1,0-0.2,0-0.3,0.1c-0.5,0.2-0.7,0.4-0.5,0.9l11.5,36.5
		c0,0,0.1,0,0.1-0.1c0,0,0.1-0.1,0.1-0.1c0.2-0.1,0.3-0.2,0.5-0.3c0,0,0.1,0,0.1-0.1c0.1-0.1,0.2-0.1,0.4-0.2L44.1,5.2L42.8,1.4z"/>
	<polygon opacity="0.6" fill="#FFFFFF" points="75.8,30.3 76.5,32.7 84.1,30.3 	"/>
	<path opacity="0.6" fill="#FFFFFF" d="M117.3,90.7c0.1,0,0.2,0,0.3,0c0.1,0,0.1,0,0.2,0c0.1,0,0.2,0,0.3,0.1c0.1,0,0.1,0,0.2,0
		c0.1,0,0.2,0,0.2,0.1c0.1,0,0.1,0,0.2,0.1c0.1,0,0.2,0.1,0.2,0.1c0.1,0,0.1,0,0.2,0.1c0.1,0,0.1,0.1,0.2,0.1c0,0,0.1,0.1,0.1,0.1
		c0.1,0.1,0.1,0.1,0.2,0.2c0,0,0.1,0.1,0.1,0.1c0.1,0.1,0.2,0.2,0.3,0.3c0.1,0.1,0.2,0.3,0.3,0.4c0,0,0,0,0,0c0.7,1,0.6,2.1,0.6,2.2
		l0,3.5h4.2c0.4-3.2,1.4-8.3,3.8-11.9c0.1-0.1,0.3-0.2,0.4-0.2c0.2,0.1,0.3,0.2,0.3,0.4v11.7h1.8v-8v-9.2c0,0,0,0-0.1,0
		c-0.2,0-0.4,0-0.6,0c-0.1,0-0.2,0-0.3,0c-0.1,0-0.2,0-0.3,0c-0.1,0-0.3,0-0.4,0c0,0-0.1,0-0.1,0c-3-0.4-5.8-1.8-8.2-4.1
		c-3.7,2.2-3.5,5.9-3.5,6c0,0,0,0,0,0v5c0,1.5-0.5,2.5-1.2,3.1c0,0,0.1,0,0.1,0C117.1,90.7,117.2,90.7,117.3,90.7z"/>
	<path opacity="0.6" fill="#FFFFFF" d="M108.6,77.3c1.1-0.6,1.9-1.3,2.9-2.8v-7.1c0-0.1,0-0.3,0-0.4c0,0,0-0.1,0-0.1
		c0-0.1,0-0.2,0-0.3c0,0,0-0.1,0-0.1c0-0.1,0-0.2,0-0.3c0,0,0-0.1,0-0.1c0-0.1,0-0.3,0.1-0.4c0,0,0-0.1,0-0.1c0-0.1,0-0.2,0.1-0.3
		c0,0,0-0.1,0-0.1c0-0.1,0.1-0.2,0.1-0.3c0,0,0,0,0-0.1c0.1-0.3,0.2-0.5,0.3-0.8c0,0,0,0,0,0c0.1-0.1,0.1-0.3,0.2-0.4c0,0,0,0,0,0
		c0.2-0.5,0.5-0.9,0.8-1.4c-0.3,0.1-0.7,0.2-1.1,0.2c0,0,0,0,0,0c-0.1,0-0.3,0.1-0.5,0.1c-0.1,0-0.2,0-0.2,0c-0.1,0-0.1,0-0.2,0
		c-0.1,0-0.3,0-0.4,0.1c0,0,0,0,0,0c-1.7,1.8-2.5,4.2-2.5,7.1v8C108.2,77.5,108.4,77.4,108.6,77.3z"/>
	<path opacity="0.6" fill="#FFFFFF" d="M110.5,90.7c-0.6-0.5-1.2-1.4-1.2-3v-5.5c0,0,0,0,0,0c0,0,0-1.3-1.1-2.7v8.8
		c0,1.2-0.4,2-1,2.5h1.7H110.5z"/>
	<path opacity="0.6" fill="#FFFFFF" d="M100.9,36.3c-0.1-0.2-0.2-0.2-0.3-0.2c-0.1,0-0.1,0-0.2,0c-0.4,0.1-0.4,0.3-0.3,0.6l7.4,23.4
		c0,0,0,0,0.1,0c0,0,0.1,0,0.1-0.1c0.1-0.1,0.2-0.1,0.3-0.2c0,0,0.1,0,0.1,0c0.1,0,0.2-0.1,0.2-0.1l-6.6-20.9L100.9,36.3z"/>
	<polygon opacity="0.6" fill="#FFFFFF" points="122,54.8 122.5,56.4 127.3,54.8 	"/>
	<path opacity="0.6" fill="#FFFFFF" d="M28.1,94.6l0,3.5h4.2c0.4-3.2,1.4-8.3,3.8-11.9c0.1-0.1,0.3-0.2,0.4-0.2
		c0.2,0.1,0.3,0.2,0.3,0.4v11.7h1.8v-8v-9.2c0,0,0,0-0.1,0c-0.2,0-0.4,0-0.6,0c-0.1,0-0.2,0-0.3,0c-0.1,0-0.2,0-0.3,0
		c-0.1,0-0.3,0-0.4,0c0,0-0.1,0-0.1,0c-3-0.4-5.8-1.8-8.2-4.1c-3.7,2.2-3.5,5.9-3.5,6c0,0,0,0,0,0v5c0,1.5-0.5,2.5-1.2,3.1
		c0,0,0.1,0,0.1,0c0.1,0,0.2,0,0.2,0c0.1,0,0.2,0,0.3,0c0.1,0,0.1,0,0.2,0c0.1,0,0.2,0,0.3,0.1c0.1,0,0.1,0,0.2,0
		c0.1,0,0.2,0,0.2,0.1c0.1,0,0.1,0,0.2,0.1c0.1,0,0.2,0.1,0.2,0.1c0.1,0,0.1,0,0.2,0.1c0.1,0,0.1,0.1,0.2,0.1c0,0,0.1,0.1,0.1,0.1
		c0.1,0.1,0.1,0.1,0.2,0.2c0,0,0.1,0.1,0.1,0.1c0.1,0.1,0.2,0.2,0.3,0.3c0.1,0.1,0.2,0.3,0.3,0.4c0,0,0,0,0,0
		C28.1,93.4,28.1,94.5,28.1,94.6z"/>
	<path opacity="0.6" fill="#FFFFFF" d="M15.7,77.3c1.1-0.6,1.9-1.3,2.9-2.8v-7.1c0-0.1,0-0.3,0-0.4c0,0,0-0.1,0-0.1
		c0-0.1,0-0.2,0-0.3c0,0,0-0.1,0-0.1c0-0.1,0-0.2,0-0.3c0,0,0-0.1,0-0.1c0-0.1,0-0.3,0.1-0.4c0,0,0-0.1,0-0.1c0-0.1,0-0.2,0.1-0.3
		c0,0,0-0.1,0-0.1c0-0.1,0.1-0.2,0.1-0.3c0,0,0,0,0-0.1c0.1-0.3,0.2-0.5,0.3-0.8c0,0,0,0,0,0c0.1-0.1,0.1-0.3,0.2-0.4c0,0,0,0,0,0
		c0.2-0.5,0.5-0.9,0.8-1.4c-0.3,0.1-0.7,0.2-1.1,0.2c0,0,0,0,0,0c-0.1,0-0.3,0.1-0.5,0.1c-0.1,0-0.2,0-0.2,0c-0.1,0-0.1,0-0.2,0
		c-0.1,0-0.3,0-0.4,0.1c0,0,0,0,0,0c-1.7,1.8-2.5,4.2-2.5,7.1v8C15.3,77.5,15.5,77.4,15.7,77.3z"/>
	<path opacity="0.6" fill="#FFFFFF" d="M17.5,90.7c-0.6-0.5-1.2-1.4-1.2-3v-5.5c0,0,0,0,0,0c0,0,0-1.3-1.1-2.7v8.8
		c0,1.2-0.4,2-1,2.5h1.7H17.5z"/>
	<path opacity="0.6" fill="#FFFFFF" d="M8,36.3c-0.1-0.2-0.2-0.2-0.3-0.2c-0.1,0-0.1,0-0.2,0c-0.4,0.1-0.4,0.3-0.3,0.6l7.4,23.4
		c0,0,0,0,0.1,0c0,0,0.1,0,0.1-0.1c0.1-0.1,0.2-0.1,0.3-0.2c0,0,0.1,0,0.1,0c0.1,0,0.2-0.1,0.2-0.1L8.8,38.8L8,36.3z"/>
	<polygon opacity="0.6" fill="#FFFFFF" points="29.1,54.8 29.6,56.4 34.4,54.8 	"/>
	<path opacity="0.8" fill="#FFFFFF" d="M52.8,53.4c0-4.2,1.2-8,3.4-10.8c-1.9,0.2-4.2,0.4-6.8,0.4c-6.9,6.3-9.4,23.3-9.4,26.6
		c0,0.9,0.1,0.9,0.7,0.9h2.6c0.3,0,0.6,0.3,0.6,0.6v10.6c0,4.5,3.5,4.8,4.2,4.8l1,0l0,0h0c0.5,0,3.6-0.2,3.6-3.9V53.4z"/>
	<path opacity="0.8" fill="#FFFFFF" d="M86.7,98.5V81.7c-3,5.4-4.3,12.5-4.7,16.8H86.7z"/>
	<path opacity="0.8" fill="#FFFFFF" d="M68.5,81.6v-7.7c0-0.5-0.2-6.6,5.8-10.4c-1.8-1.8-3.4-4-4.9-6.4c-1.3-2.1-2.3-4.3-3.2-6.2
		c-1.1,1.1-2,2.3-2.6,3.8c-1.3,3-2.3,5.2-3.3,6.8c-1.7,2.8-3.1,3.9-5,5c-0.3,0.1-0.6,0.4-0.7,0.7c-0.1,0.3,0.2,0.7,0.3,0.8
		c2,2.6,2,4.9,2,5.1v8.6c0,2,0.6,3.3,1.9,4.1c1,0.6,2,0.7,2.3,0.7l0.1,0c0,0,0,0,0,0c0,0,0,0,0,0h3.1C65.4,86.3,68.5,85.9,68.5,81.6
		z"/>
	<path opacity="0.8" fill="#FFFFFF" d="M80.1,5.5c-0.3,0-0.5-0.2-0.6-0.4l-1.1-3.4H44.2l1,3.1l7.7,24.2h22h13c0.3,0,0.6,0.2,0.6,0.5
		c0,0.3-0.1,0.6-0.4,0.7L80,32.9h25.3L96.6,5.5H80.1z"/>
	<path opacity="0.8" fill="#FFFFFF" d="M105.9,62.9c-0.2,2.3-1,5.8-3.9,9.5c-0.1,0.2-0.3,0.4-0.4,0.6c-0.1,0.1-0.1,0.2-0.2,0.3
		c-0.1,0.1-0.1,0.2-0.2,0.3c-0.1,0.1-0.2,0.2-0.3,0.4c0,0.1-0.1,0.1-0.1,0.2c-0.1,0.1-0.2,0.2-0.3,0.4c-0.1,0.1-0.1,0.1-0.2,0.2
		c-0.1,0.1-0.2,0.2-0.3,0.3c0,0.1-0.1,0.1-0.1,0.2c0,0.1-0.1,0.1-0.1,0.2c-0.4,2.1-0.6,3.9-0.6,4.6c0,0.5,0.1,0.5,0.4,0.5h1.7
		c0.2,0,0.4,0.2,0.4,0.4v6.8c0,2.9,2.2,3.1,2.7,3.1l0.6,0h0c0.3,0,2.3-0.1,2.3-2.5V69.6c0-2.7,0.7-5.1,2.2-6.9
		C108.5,62.8,107.3,62.9,105.9,62.9z"/>
	<path opacity="0.8" fill="#FFFFFF" d="M129,98.1V87.8c-1.8,3.3-2.6,7.5-3,10.3H129z"/>
	<path opacity="0.8" fill="#FFFFFF" d="M117.4,87.7v-5c0-0.3-0.1-4.2,3.7-6.6c-1.1-1.2-2.2-2.5-3.1-4.1c-0.8-1.4-1.5-2.7-2-4
		c-0.7,0.7-1.3,1.5-1.7,2.4c-0.8,1.9-1.5,3.3-2.1,4.3c-1.1,1.8-2,2.5-3.2,3.2c-0.2,0.1-0.4,0.2-0.4,0.4c0,0.2,0.1,0.4,0.2,0.5
		c1.3,1.7,1.3,3.1,1.3,3.3v5.5c0,1.3,0.4,2.1,1.2,2.6c0.6,0.4,1.3,0.4,1.5,0.4l0,0c0,0,0,0,0,0c0,0,0,0,0,0h2
		C115.4,90.7,117.4,90.5,117.4,87.7z"/>
	<path opacity="0.8" fill="#FFFFFF" d="M124.8,39c-0.2,0-0.3-0.1-0.4-0.3l-0.7-2.2h-21.9l0.6,2l4.9,15.5h14.1h8.3
		c0.2,0,0.4,0.1,0.4,0.3c0,0.2-0.1,0.4-0.3,0.4l-5.2,1.7h16.2L135.4,39H124.8z"/>
	<path opacity="0.8" fill="#FFFFFF" d="M14.4,69.6c0-2.7,0.7-5.1,2.2-6.9c-1.2,0.1-2.7,0.2-4.4,0.2c-4.4,4-6,15-6,17
		c0,0.5,0.1,0.5,0.4,0.5h1.7c0.2,0,0.4,0.2,0.4,0.4v6.8c0,2.9,2.2,3.1,2.7,3.1l0.6,0l0,0h0c0.3,0,2.3-0.1,2.3-2.5V69.6z"/>
	<path opacity="0.8" fill="#FFFFFF" d="M36.1,98.1V87.8c-1.8,3.3-2.6,7.5-3,10.3H36.1z"/>
	<path opacity="0.8" fill="#FFFFFF" d="M24.5,87.7v-5c0-0.3-0.1-4.2,3.7-6.6C27,74.9,26,73.5,25,72c-0.8-1.4-1.5-2.7-2-4
		c-0.7,0.7-1.3,1.5-1.7,2.4c-0.8,1.9-1.5,3.3-2.1,4.3c-1.1,1.8-2,2.5-3.2,3.2c-0.2,0.1-0.4,0.2-0.4,0.4c0,0.2,0.1,0.4,0.2,0.5
		c1.3,1.7,1.3,3.1,1.3,3.3v5.5c0,1.3,0.4,2.1,1.2,2.6c0.6,0.4,1.3,0.4,1.5,0.4l0,0c0,0,0,0,0,0c0,0,0,0,0,0h2
		C22.4,90.7,24.5,90.5,24.5,87.7z"/>
	<path opacity="0.8" fill="#FFFFFF" d="M37,54.8l-5.2,1.7h9.3c0.9-3.3,2.2-6.8,3.8-9.7L42.4,39H31.9c-0.2,0-0.3-0.1-0.4-0.3
		l-0.7-2.2H8.9l0.6,2l4.9,15.5h14.1h8.3c0.2,0,0.4,0.1,0.4,0.3C37.3,54.6,37.2,54.8,37,54.8z"/>
</g>
</svg>
