<?xml version="1.0" encoding="utf-8"?>
<!-- Generator: Adobe Illustrator 18.0.0, SVG Export Plug-In . SVG Version: 6.00 Build 0)  -->
<!DOCTYPE svg PUBLIC "-//W3C//DTD SVG 1.1 Tiny//EN" "http://www.w3.org/Graphics/SVG/1.1/DTD/svg11-tiny.dtd">
<svg version="1.1" baseProfile="tiny" id="Capa_1" xmlns="http://www.w3.org/2000/svg" xmlns:xlink="http://www.w3.org/1999/xlink"
	 x="0px" y="0px" viewBox="0 0 230 25" xml:space="preserve">
<g>
	<g>
		<path fill="#FAF0DF" d="M9.9,14.5c0,1.1-0.8,2-1.9,2.2l2.3,6.1c0.1,0.3-0.1,0.6-0.5,0.6H8.2c-0.4,0-0.6-0.2-0.7-0.6l-2.1-6.1h-1
			v6.1c0,0.4-0.2,0.6-0.6,0.6H2.1c-0.4,0-0.6-0.2-0.6-0.6V6.1h6.1c1.2,0,2.2,1,2.2,2.2V14.5z M7.1,8.9c0-0.4-0.2-0.6-0.6-0.6H4.3
			v6.1h2.2c0.4,0,0.6-0.2,0.6-0.6V8.9z"/>
		<path fill="#FAF0DF" d="M14.8,15.4v5.8h3.3c0.4,0,0.6,0.2,0.6,0.6v1.1c0,0.4-0.2,0.6-0.6,0.6H12V6.1h6c0.4,0,0.6,0.2,0.6,0.6v1.1
			c0,0.4-0.2,0.6-0.6,0.6h-3.2v4.8h2.6c0.4,0,0.6,0.2,0.6,0.6v1.1c0,0.4-0.2,0.6-0.6,0.6H14.8z"/>
		<path fill="#FAF0DF" d="M27,21.2c-0.1,1.2-1,2.2-2.2,2.2h-1.2c-1.2,0-2.1-1-2.2-2.2L19.5,6.6c0-0.4,0.2-0.6,0.5-0.6h1.7
			c0.4,0,0.5,0.2,0.6,0.6L24,21.2h0.3l1.6-14.5c0-0.4,0.2-0.6,0.6-0.6h1.7c0.4,0,0.6,0.2,0.5,0.6L27,21.2z"/>
		<path fill="#FAF0DF" d="M30.1,8.3c0-1.2,1-2.2,2.2-2.2h4.2c1.2,0,2.2,1,2.2,2.2v13c0,1.2-1,2.2-2.2,2.2h-4.2c-1.2,0-2.2-1-2.2-2.2
			V8.3z M33.4,8.3c-0.4,0-0.6,0.2-0.6,0.6v11.7c0,0.4,0.2,0.6,0.6,0.6h1.8c0.4,0,0.6-0.2,0.6-0.6V8.9c0-0.4-0.2-0.6-0.6-0.6H33.4z"
			/>
		<path fill="#FAF0DF" d="M40.8,6.6c0-0.4,0.2-0.6,0.6-0.6H43c0.4,0,0.6,0.2,0.6,0.6v14.5h3.4c0.4,0,0.6,0.2,0.6,0.6v1.1
			c0,0.4-0.2,0.6-0.6,0.6h-6.2V6.6z"/>
		<path fill="#FAF0DF" d="M54.3,6.6c0-0.4,0.2-0.6,0.6-0.6h1.7c0.4,0,0.6,0.2,0.6,0.6v14.6c0,1.2-1,2.2-2.2,2.2H51
			c-1.2,0-2.2-1-2.2-2.2V6.6c0-0.4,0.2-0.6,0.6-0.6H51c0.4,0,0.6,0.2,0.6,0.6v14c0,0.4,0.2,0.6,0.6,0.6h1.6c0.4,0,0.6-0.2,0.6-0.6
			V6.6z"/>
		<path fill="#FAF0DF" d="M62.6,8.3c-0.4,0-0.6,0.2-0.6,0.6v11.7c0,0.4,0.2,0.6,0.6,0.6h1.8c0.4,0,0.6-0.2,0.6-0.6v-1.9
			c0-0.4,0.2-0.6,0.6-0.6h1.7c0.4,0,0.6,0.2,0.6,0.6v2.5c0,1.2-1,2.2-2.2,2.2h-4.2c-1.2,0-2.2-1-2.2-2.2v-13c0-1.2,1-2.2,2.2-2.2h4
			c1.2,0,2.2,1,2.2,2.2v2.5c0,0.4-0.2,0.6-0.6,0.6h-1.7c-0.4,0-0.6-0.2-0.6-0.6V8.9c0-0.3-0.2-0.6-0.6-0.6H62.6z"/>
		<path fill="#FAF0DF" d="M71.9,6.1c0.4,0,0.6,0.2,0.6,0.6v16.3c0,0.4-0.2,0.6-0.6,0.6h-1.7c-0.4,0-0.6-0.2-0.6-0.6V6.6
			c0-0.4,0.2-0.6,0.6-0.6H71.9z"/>
		<path fill="#FAF0DF" d="M74.5,8.3c0-1.2,1-2.2,2.2-2.2h4.2c1.2,0,2.2,1,2.2,2.2v13c0,1.2-1,2.2-2.2,2.2h-4.2c-1.2,0-2.2-1-2.2-2.2
			V8.3z M77.9,8.3c-0.4,0-0.6,0.2-0.6,0.6v11.7c0,0.4,0.2,0.6,0.6,0.6h1.8c0.4,0,0.6-0.2,0.6-0.6V8.9c0-0.4-0.2-0.6-0.6-0.6H77.9z
			 M79.2,4.9c-0.3,0.3-0.6,0.3-0.8,0.1l-0.7-0.7c-0.3-0.3-0.3-0.5-0.1-0.8L79,1.8c0.2-0.3,0.6-0.3,0.8,0l0.9,0.9
			c0.3,0.2,0.3,0.5,0,0.8L79.2,4.9z"/>
		<path fill="#FAF0DF" d="M89.2,6.1c0.4,0,0.5,0.2,0.6,0.6l1.4,11.2l0.3,3.2l0.1,0L91.5,6.6c0-0.4,0.2-0.6,0.6-0.6h1.4
			c0.4,0,0.6,0.2,0.6,0.6l-0.1,16.3c0,0.4-0.2,0.6-0.6,0.6h-3.6c-0.4,0-0.5-0.2-0.6-0.6l-1.5-11.6l-0.2-3h-0.2l0.2,14.6
			c0,0.4-0.2,0.6-0.6,0.6h-1.4c-0.4,0-0.6-0.2-0.6-0.6V6.6c0-0.4,0.2-0.6,0.6-0.6H89.2z"/>
	</g>
	<g>
		<path fill="#FAF0DF" d="M128,11.3c0.3,0.9,0.4,1.9,0.4,2.9v7c0,1.2-1,2.2-2.2,2.2h-6.1V6.1h4.4c1.4,0,2.1,0.8,2.5,1.9L128,11.3z
			 M124.3,8.8c-0.1-0.3-0.3-0.4-0.6-0.4h-0.8v12.8h2.2c0.4,0,0.6-0.2,0.6-0.6v-7c0-0.3,0-0.6-0.1-0.9L124.3,8.8z"/>
		<path fill="#FAF0DF" d="M133.4,15.4v5.8h3.3c0.4,0,0.6,0.2,0.6,0.6v1.1c0,0.4-0.2,0.6-0.6,0.6h-6.1V6.1h6c0.4,0,0.6,0.2,0.6,0.6
			v1.1c0,0.4-0.2,0.6-0.6,0.6h-3.2v4.8h2.6c0.4,0,0.6,0.2,0.6,0.6v1.1c0,0.4-0.2,0.6-0.6,0.6H133.4z"/>
		<path fill="#FAF0DF" d="M141.8,11.3l-0.4-3h-0.1l0.2,14.6c0,0.4-0.2,0.6-0.6,0.6h-1.4c-0.4,0-0.6-0.2-0.6-0.6V6.6
			c0-0.4,0.2-0.6,0.6-0.6h3.7c0.4,0,0.5,0.2,0.6,0.6l1.7,11.2l0.3,3.2h0.1l0.3-3.2l1.7-11.2c0.1-0.4,0.2-0.6,0.6-0.6h3.6
			c0.4,0,0.6,0.2,0.6,0.6v16.3c0,0.4-0.2,0.6-0.6,0.6h-1.5c-0.4,0-0.6-0.2-0.6-0.6l0.2-14.6H150l-0.4,3L148,22.9
			c-0.1,0.4-0.2,0.6-0.6,0.6H144c-0.4,0-0.5-0.2-0.6-0.6L141.8,11.3z"/>
		<path fill="#FAF0DF" d="M154.7,8.3c0-1.2,1-2.2,2.2-2.2h4.2c1.2,0,2.2,1,2.2,2.2v13c0,1.2-1,2.2-2.2,2.2h-4.2
			c-1.2,0-2.2-1-2.2-2.2V8.3z M158.1,8.3c-0.4,0-0.6,0.2-0.6,0.6v11.7c0,0.4,0.2,0.6,0.6,0.6h1.8c0.4,0,0.6-0.2,0.6-0.6V8.9
			c0-0.4-0.2-0.6-0.6-0.6H158.1z"/>
		<path fill="#FAF0DF" d="M168.8,8.3c-0.4,0-0.6,0.2-0.6,0.6v11.7c0,0.4,0.2,0.6,0.6,0.6h1.8c0.4,0,0.6-0.2,0.6-0.6v-1.9
			c0-0.4,0.2-0.6,0.6-0.6h1.7c0.4,0,0.6,0.2,0.6,0.6v2.5c0,1.2-1,2.2-2.2,2.2h-4.2c-1.2,0-2.2-1-2.2-2.2v-13c0-1.2,1-2.2,2.2-2.2h4
			c1.2,0,2.2,1,2.2,2.2v2.5c0,0.4-0.2,0.6-0.6,0.6h-1.7c-0.4,0-0.6-0.2-0.6-0.6V8.9c0-0.3-0.2-0.6-0.6-0.6H168.8z"/>
		<path fill="#FAF0DF" d="M184.2,14.5c0,1.1-0.8,2-1.9,2.2l2.3,6.1c0.1,0.3-0.1,0.6-0.4,0.6h-1.7c-0.4,0-0.6-0.2-0.7-0.6l-2.1-6.1
			h-1v6.1c0,0.4-0.2,0.6-0.6,0.6h-1.7c-0.4,0-0.6-0.2-0.6-0.6V6.1h6.1c1.2,0,2.2,1,2.2,2.2V14.5z M181.3,8.9c0-0.4-0.2-0.6-0.6-0.6
			h-2.2v6.1h2.2c0.4,0,0.6-0.2,0.6-0.6V8.9z"/>
		<path fill="#FAF0DF" d="M195,22.9c0,0.4-0.2,0.6-0.5,0.6h-1.7c-0.4,0-0.6-0.2-0.6-0.6l-0.5-3.8h-3l-0.4,3.8c0,0.4-0.2,0.6-0.6,0.6
			H186c-0.4,0-0.6-0.2-0.5-0.6l1.9-14.6c0.1-1.2,1-2.2,2.2-2.2h1.4c1.2,0,2.1,1,2.2,2.2L195,22.9z M189,16.8h2.5l-1-8.5H190
			L189,16.8z M191.1,4.9c-0.3,0.3-0.6,0.3-0.8,0.1l-0.7-0.7c-0.3-0.3-0.3-0.5-0.1-0.8l1.4-1.7c0.2-0.3,0.6-0.3,0.8,0l0.9,0.9
			c0.3,0.2,0.3,0.5,0,0.8L191.1,4.9z"/>
		<path fill="#FAF0DF" d="M202.6,6.1c0.4,0,0.6,0.2,0.6,0.6v1.1c0,0.4-0.2,0.6-0.6,0.6h-2.5v14.5c0,0.4-0.2,0.6-0.6,0.6h-1.7
			c-0.4,0-0.6-0.2-0.6-0.6V8.3h-2.5c-0.4,0-0.6-0.2-0.6-0.6V6.6c0-0.4,0.2-0.6,0.6-0.6H202.6z"/>
		<path fill="#FAF0DF" d="M206.7,6.1c0.4,0,0.6,0.2,0.6,0.6v16.3c0,0.4-0.2,0.6-0.6,0.6H205c-0.4,0-0.6-0.2-0.6-0.6V6.6
			c0-0.4,0.2-0.6,0.6-0.6H206.7z"/>
		<path fill="#FAF0DF" d="M212.7,8.3c-0.4,0-0.6,0.2-0.6,0.6v11.7c0,0.4,0.2,0.6,0.6,0.6h1.8c0.4,0,0.6-0.2,0.6-0.6v-1.9
			c0-0.4,0.2-0.6,0.6-0.6h1.7c0.4,0,0.6,0.2,0.6,0.6v2.5c0,1.2-1,2.2-2.2,2.2h-4.2c-1.2,0-2.2-1-2.2-2.2v-13c0-1.2,1-2.2,2.2-2.2h4
			c1.2,0,2.2,1,2.2,2.2v2.5c0,0.4-0.2,0.6-0.6,0.6h-1.7c-0.4,0-0.6-0.2-0.6-0.6V8.9c0-0.3-0.2-0.6-0.6-0.6H212.7z"/>
		<path fill="#FAF0DF" d="M228.5,22.9c0,0.4-0.2,0.6-0.5,0.6h-1.7c-0.4,0-0.6-0.2-0.6-0.6l-0.5-3.8h-3l-0.4,3.8
			c0,0.4-0.2,0.6-0.6,0.6h-1.7c-0.4,0-0.6-0.2-0.5-0.6l1.9-14.6c0.1-1.2,1-2.2,2.2-2.2h1.4c1.2,0,2.1,1,2.2,2.2L228.5,22.9z
			 M222.4,16.8h2.5l-1-8.5h-0.5L222.4,16.8z"/>
	</g>
	<polygon fill="#FAF0DF" points="107,17.7 103.1,19.7 103.9,15.4 100.7,12.3 105.1,11.6 107,7.7 109,11.6 113.4,12.3 110.2,15.4 
		111,19.7 	"/>
</g>
</svg>
