<?xml version="1.0" encoding="utf-8"?>
<!-- Generator: Adobe Illustrator 18.0.0, SVG Export Plug-In . SVG Version: 6.00 Build 0)  -->
<!DOCTYPE svg PUBLIC "-//W3C//DTD SVG 1.1 Tiny//EN" "http://www.w3.org/Graphics/SVG/1.1/DTD/svg11-tiny.dtd">
<svg version="1.1" baseProfile="tiny" id="Capa_1" xmlns="http://www.w3.org/2000/svg" xmlns:xlink="http://www.w3.org/1999/xlink"
	 x="0px" y="0px" viewBox="0 0 30 30" xml:space="preserve">
<path id="White_2_" fill="#FFFFFF" d="M28.3,0H1.7C0.7,0,0,0.7,0,1.7v26.7C0,29.3,0.7,30,1.7,30H16V18.4h-3.9v-4.5H16v-3.3
	c0-3.9,2.4-6,5.8-6c1.7,0,3.1,0.1,3.5,0.2v4l-2.4,0c-1.9,0-2.2,0.9-2.2,2.2v2.9h4.5l-0.6,4.5h-3.9V30h7.6c0.9,0,1.7-0.7,1.7-1.7V1.7
	C30,0.7,29.3,0,28.3,0z"/>
</svg>
